<?xml version="1.0" encoding="utf-8"?>
<!-- Generator: Adobe Illustrator 22.1.0, SVG Export Plug-In . SVG Version: 6.00 Build 0)  -->
<svg version="1.1" id="Layer_1" xmlns="http://www.w3.org/2000/svg" xmlns:xlink="http://www.w3.org/1999/xlink" x="0px" y="0px"
	 viewBox="0 0 1000 1000" style="enable-background:new 0 0 1000 1000;" xml:space="preserve">
<path d="M1003.5,760.1c-0.7,2.3-2.4,3.8-4.3,5.2c-17.3,13.1-34.5,26.2-51.7,39.3c-1.6,1.2-2.1,2.4-2.2,4.3
	c-0.5,21.1-1.1,42.1-1.5,63.2c-0.1,4.8-4.7,9.3-10.5,6.6c-9.4-4.4-18.8-8.7-28.2-12.8c-11.2-4.9-22.3-9.8-33.7-14.1
	c-14.5-5.6-28.5-12.4-43-18c-7-4.5-14.9-7.1-22.3-10.7c-0.9-0.4-1.8-0.7-2.9-1.2c-0.6,1-1.1,1.8-1.6,2.7c-6.3,11-12.6,22-19,32.9
	c-6,10.2-15.2,15.7-26.9,16.9c-9.3,1-18.3-0.7-26.9-4.4c-32.7-13.8-66.3-24.9-100.9-33c-18-4.2-36.1-7.6-54.3-10.3
	c-15.1-2.2-30.3-3.8-45.5-5c-21.9-1.7-43.8-2-65.8-0.9c-12.5,0.6-25.1,1.5-37.6,2.6c-14.9,1.4-29.7,3.5-44.5,6.1
	c-23,4-45.8,9.3-68.3,15.8c-14.7,4.3-29.1,9.1-43.4,14.4c-8.7,3.2-17.7,4.9-27,3.7c-12.1-1.6-21.4-7.5-27.2-18.4
	c-6-11.3-11.8-22.6-17.7-33.9c-0.4-0.8-0.8-1.5-1.4-2.5c-3.6,1.8-7.6,2.4-10.8,4.9c-0.5,0.4-1.2,0.5-1.9,0.8
	c-27,9.7-54,19.4-80.9,29.3c-10.8,4-21.4,8.4-32.1,12.7c-1,0.4-2,0.8-3,1.1c-4.5,1.3-8.8-1.8-8.8-6.5c0-4.5,0.1-9.1,0.2-13.6
	c0.4-16.9,0.8-33.8,1.3-50.7c0.1-1.8-0.5-3-1.9-4.2C40.5,768.2,23.8,754,6.8,740C1,735.2,3.5,728.8,9,726.7
	c15.8-5.9,31.4-12.5,47.2-18.4c14.6-5.5,29.4-10.7,44-16c8.6-3.1,17.3-6.1,25.9-9.4c11.8-4.6,23.5-9.4,35.2-14.2
	c0.9-0.4,1.8-0.7,3-1.1c1.3,1.9,2.5,3.8,3.8,5.7c1.3,1.9,2.7,3.7,4.3,5.7c-1,0.4-1.7,0.8-2.5,1.1c-8.3,3.3-16.8,6.5-25,10
	c-22.9,9.8-46.7,17.2-70,26c-16.5,6.3-33,12.7-49.5,19c-0.5,0.2-1,0.5-1.7,0.9c3.6,3.1,7.1,6,10.6,8.9c11.7,9.8,23.4,19.7,35.1,29.4
	c2.7,2.2,3.8,4.8,3.6,8.3c-0.4,12.6-0.6,25.1-0.9,37.7c-0.1,5.1-0.3,10.2-0.5,15.4c0,1.3,0,2.7,0,4.5c1.1-0.4,2.1-0.7,3-1.1
	c12.5-4.7,24.9-9.6,37.4-14.2c21.7-8,43.4-15.7,65-23.7c3.8-1.4,7.5-3.4,11.6-5.2c-0.4-0.9-0.8-1.8-1.3-2.7
	c-10.2-19.6-20.5-39.2-30.6-58.9c-1.5-2.9-2.7-6-3.6-9.1c-1-3.5-0.5-7.2,1.2-10.5c1.5-2.9,3.2-5.8,5.4-8.2c4.8-5.5,10.9-9.4,17.2-13
	c0.3,0.2,0.5,0.3,0.6,0.4c0.6,4.2,2.7,7.6,5.2,10.8c4.3,5.7,9.4,10.5,14.8,15.1c1.1,0.9,2.2,1.8,3.6,3c-2,1.3-2.7,3.1-2.8,5.1
	c-0.1,1.4,0.4,2.8,0.6,4.5c2.5-0.5,4.5-0.9,6.8-1.3c-0.3-0.9-0.5-1.6-0.7-2.4c1.4-1,3.1-1.2,4.7-1.2c6.8,0.2,12.7-2.6,18.9-5.4
	c-0.9-0.1-1.9-0.4-2.8-0.4c-4.3-0.1-8.5-0.1-12.8-0.1c-1.4,0-2.6-0.3-3.8-1.1c-8.9-6-16.5-13.3-22.8-22.1c-0.7-1-1.3-2.1-1.9-3.2
	c-0.2-0.3-0.1-0.7-0.3-1.4c1.2-0.2,2.3-0.5,3.4-0.5c15.7,0.5,30.9,3.2,45.4,9.3c0.5,0.2,1,0.5,1.4,0.7c0.8,4.2,1.6,8.3,2.4,12.7
	c-8.4-2-16.3-5-24.2-7.9c-0.2,0.2-0.4,0.5-0.6,0.7c0.3,0.1,0.6,0.2,0.9,0.3c0.3,0.1,0.5,0.3,0.8,0.4c6.9,3.3,13.8,6.5,20.7,9.8
	c1.2,0.6,2.3,0.7,3.6,0.2c1.5-0.6,3.1-1,5-1.7c-6.2-17.6-3.2-34.2,5.6-50.2c3.7-6.7,7-10.9,9.9-12.5c0.4,0.9,0.9,1.7,1.3,2.5
	c2.7,6.6,4,13.5,5.2,20.5c0.1,0.9,0.2,1.7,0.4,2.6c0.4,2.7,0.1,5.2-1.3,7.8c-4,7.3-6.7,15.2-7.9,23.5c-0.1,0.4-0.1,0.9-0.1,1.7
	c1.3-0.3,2.3-0.6,3.3-0.9c1.4-0.3,2-1.1,2.3-2.6c1.4-7.9,4.2-15.3,8.1-22.2c1-1.8,2.1-3.4,3.3-5.1c0.3-0.4,0.8-0.7,1.6-1.4
	c1,1.7,2.1,3,2.7,4.6c2,5.3,3.9,10.7,5.8,16.1c0.4,1.1,0.6,2.2,1,3.4c0.9-0.2,1.7-0.3,2.4-0.4c20-5.3,40.1-9.7,60.5-13.4
	c9.7-1.7,19.4-3.2,29.2-4.8c1.8-0.3,3.2,0,4.7,1.4c2.8,2.8,5.9,5.3,8.9,7.9c0.8,0.7,1.6,1.4,2.7,2.4c-3.6,0.5-6.7,0.9-9.7,1.4
	c-15.1,2.5-30.2,4.7-45.1,7.5c-38.1,7.2-75.3,17.7-111.8,30.8c-4,1.4-8,2.9-11.9,4.4c-9.6,3.7-19.5,4.4-29.7,3.3
	c-0.6-0.1-1.1-0.1-1.8-0.2c2.1,2.4,9.6,4.9,16.5,5.8c5.8,0.8,11.6,0.7,17.5,0.2c-4.1,2.3-8.5,3.7-13,4.4c-4.5,0.7-9.1,1.1-14,1.7
	c5.2,2.7,10.5,3.9,16,4.7c5.6,0.8,11.2,0.7,16.8,0.2c-4.1,2.3-8.5,3.7-13.1,4.4c-4.5,0.7-9.1,1.1-13.5,1.6
	c4.6,3.8,17.9,5.9,32.3,5.1c-2.5,1.6-5.3,2.5-8.2,3.2c-3.1,0.8-6.2,1.5-9.4,1.9c-3,0.4-6.1,0.4-9.8,0.7c5.5,2.9,11,4.2,16.6,5.1
	c5.6,0.9,11.1,0.7,16.7,0.2c-8.5,4.1-17.5,5.8-26.9,5.5c4.4,4.1,18.3,6.3,32.8,5.5c-4.1,2.2-8.6,3.6-13.2,4.3
	c-4.5,0.7-9.1,1-14.1,1.6c10.8,4.9,21.6,6.5,33,5.1c-8.4,4.1-17.5,5.6-27.2,5.5c5.5,3.7,19.6,7.3,33,5.6c-8.3,4.1-17.3,5.5-26.6,5.7
	c10.3,5.1,21.1,6.6,32.6,5.1c-4.3,3.1-12.8,4.8-26.7,5.7c2.9,3.2,19,7.4,32.2,5.6c-8.9,4.2-18.4,5.6-28.8,5.2
	c0.9,0.7,1.3,1.2,1.8,1.4c4.7,2.4,9.7,3.1,14.9,2.7c4.4-0.4,8.8-1.3,13-2.9c32.2-12.1,65.1-21.4,98.8-28.1c14.8-3,29.6-5.3,44.6-7.2
	c31.6-4.1,63.3-5.8,95.2-5c11.8,0.3,23.6,1.2,35.3,2.1c10.1,0.8,20.2,1.7,30.3,3.2c13.6,1.9,27.1,4.2,40.6,6.7
	c25.7,4.8,51,11.6,75.9,19.7c16.7,5.5,33.2,11.6,49.3,18.5c4.8,2,9.8,3.5,15.1,3.9c5,0.4,9.8-0.2,14.4-2.5c0.2-0.1,0.5-0.3,0.7-0.5
	c0.1,0,0.1-0.2,0.2-0.6c-10,0.2-19.5-1.6-28.3-6.3c11.3,1.9,22.2,0.5,32.8-4c-9.3-0.6-18.2-2.3-26.5-6.7c11.3,1.8,22.2,0.6,32.8-4.1
	c-9.2-0.4-18.1-2.3-26.3-6.6c11.2,1.6,22,0.5,32.4-4c-9.3-0.7-18.3-2.4-26.6-7c11.2,2,22.1,0.8,32.6-3.7c-4.4-0.7-8.8-1.1-13.1-2
	c-4.4-0.9-8.7-2.4-12.7-4.8c11.2,1.5,22,0.6,32.4-3.9c-9.3-0.6-18.2-2.5-27.1-7.1c4.3,0.3,7.9,0.9,11.6,0.8
	c3.7-0.1,7.5-0.5,11.2-1.1c3.7-0.6,7.3-1.6,10.7-3.4c-9.5-0.6-18.5-2.6-26.9-7.1c11.4,1.8,22.4,1,33.4-3.4
	c-4.9-0.8-9.4-1.3-13.9-2.3c-4.5-0.9-8.9-2.5-12.9-5c11.2,1.8,22,0.8,32.5-3.5c-9.4-0.8-18.4-2.8-26.7-7.4
	c11.8,1.9,23.3,1.1,34.3-3.7c0-0.2,0-0.4,0-0.7c-0.8,0-1.6,0-2.4,0c-7.7,0.3-15.3-0.1-22.6-2.5c-4.2-1.4-8.3-3.2-12.4-4.9
	c-45.1-18.8-91.6-33.4-139.5-43.2c-15.1-3.1-30.4-5.5-45.6-8.2c-0.6-0.1-1.1-0.3-1.7-0.4c2.6-4.2,5.2-8.2,7.9-12.6
	c39.3,5.9,78.1,15,116.5,26.9c2.8-8.3,5.4-16.5,10.4-23.6c1.9,0.9,2.5,2.5,3.3,3.9c4.1,7.4,6.8,15.3,8.3,23.7
	c0.2,1.1,0.4,2.3,0.7,3.5c2.7,1,5.4,2,8.2,3c16.3-12.8,35.5-17,55.5-18.4c4.5-0.3,9.2-0.6,14.2,0.4c-1,1.6-1.5,2.8-2.3,3.9
	c-6.8,8.9-15.2,16.2-24.8,22.1c-1.2,0.7-2.3,0.7-3.6,0.6c-5.2-0.2-10.4-0.4-15.6-0.6c-0.1,0.2-0.1,0.4-0.2,0.7
	c3.8,1.6,7.4,3.5,11.3,4.6c3.9,1.1,8.1,1.4,12.4,2.1c-0.2,1.1-0.4,1.9-0.6,2.9c2,0.5,4.1,1.1,6,1.6c2.2-3.2,1.9-6.2-0.8-9.5
	c0.6-0.5,1.2-1.1,1.9-1.6c6.8-5.1,12.9-10.8,18.2-17.4c2.2-2.7,4.2-5.5,4.5-9.1c0.3,0,0.6-0.1,0.7,0c6.7,4.1,13,8.8,17.7,15.2
	c3.5,4.7,5.4,10,4.6,16c-0.4,2.9-1.5,5.6-3,8.1c-11.5,19.9-23,39.8-34.5,59.7c-0.4,0.7-0.8,1.5-1.4,2.5c0.7,0.4,1.3,0.8,2,1.1
	c5.1,2.3,10.4,4.3,15.3,7c12.5,6.7,25.9,11.5,38.9,17c13,5.5,26,10.8,39,16.3c7.2,3.1,14.3,6.4,21.4,9.6c0.9,0.4,1.9,0.8,3.2,1.3
	c0.1-1.6,0.2-2.8,0.2-4.1c0.4-17.9,0.9-35.8,1.2-53.6c0.1-3.5,1.4-6,4.1-8.1c15.1-11.3,30-22.8,45-34.2c0.7-0.5,1.3-1.1,2.3-1.8
	c-0.8-0.5-1.4-0.9-2-1.2c-19.5-9-39.1-17.6-59-25.7c-13.2-5.4-26.6-10.5-39.5-16.7c-13.7-6.6-27.6-12.4-41.3-18.9
	c-3-1.4-6.1-2.8-9.4-4.2c2.9-3.8,5.7-7.5,8.6-11.2c5.5,2.5,11,4.9,16.4,7.3c16.2,7.2,32.4,14.6,48.7,21.7
	c11.7,5.1,23.4,10,35.3,14.8c14.8,5.9,29.1,12.9,43.6,19.3c4.4,2,8.8,4.1,13.2,5.9c2.8,1.2,5.1,2.7,5.9,5.8
	C1003.5,758.2,1003.5,759.2,1003.5,760.1z M254.3,680.6c-2.4,11.5-3.8,23-4.2,35.1c1.8-0.6,3.1-1,4.2-1.4
	C254.3,702.9,254.3,691.7,254.3,680.6z M760.4,729.5c1.2,0.5,1.9,0.7,2.5,1.1c2.2,1.2,4.3,1.1,6.6,0.1c6.4-2.8,13-5.5,19.5-8.3
	c0.8-0.4,1.6-0.8,2.4-1.3c0-0.1-0.1-0.1-0.1-0.2C781.2,723.6,771.1,726.5,760.4,729.5z M598.6,676.6c-0.4,1.5-0.7,2.7-1.1,3.9
	c-4.2,13.6-13.4,22.8-25.8,29.1c-9.9,5-20.5,6.6-31.5,6.1c-10.2-0.5-20-2.8-29.6-6.2c-2.4-0.9-5-1.6-7.5-2.2
	c-3.9-1-7.3,0.2-10.3,2.7c-1.6,1.3-3,2.7-4.6,4c-14.4,12-30.7,16.2-49,11.9c-6.2-1.5-11.7-4.6-16.5-8.8c-2.5-2.2-4.8-4.5-7.1-6.9
	c-5.3-5.8-11.2-11-17.5-15.7c-12.8-9.5-23.3-21.1-32.4-34.2c-7.5-10.8-14.6-21.9-20.6-33.6c-5-9.7-8.7-19.8-10.3-30.6
	c-0.5-3.6-1.9-7.1-2.3-10.7c-0.9-9.2-1.8-18.5-2.1-27.7c-0.3-9.7,0.1-19.5,0.2-29.3c0.2-22.6,4.7-44.7,9.8-66.6
	c0.5-2.2,0.3-4.1-0.7-6.1c-1.4-2.6-3.3-4.8-5.5-6.6c-2.5-2-5.2-3.8-7.6-5.8c-6.4-5.6-6.1-4.9-2.9-12.3c1.5-3.5,3.8-6.7,5.8-10.2
	c-0.9-0.3-2-0.6-3-1c-4.4-1.4-8.9-2.5-13.2-4.2c-7.9-3.1-14.6-7.9-18.9-15.5c-0.1-0.1-0.3-0.2-0.6-0.5c-0.4,1.1-0.7,2-1.1,3
	c-1.6,4.3-3,8.6-4.8,12.7c-2.3,5.2-5.5,9.8-10.1,13.3c-1.4,1-2.9,1.9-4.7,3.1c0-0.9-0.1-1.5,0-1.9c1.4-8.5-0.4-16.2-6-22.8
	c-2.1-2.4-4.3-4.7-6.7-6.9c-6.5-6.2-12.2-13-15.8-21.3c-1.9-4.4-3.4-9-3.9-13.9c-0.6-5.9,1-11.1,4.8-15.6c2.5-2.9,5.4-5.3,8.7-7.2
	c3.5-2,7.1-4,10.7-5.8c10.1-5.3,19-12.3,27.4-19.8c2.5-2.2,4.6-5,6.7-7.6c3.1-3.8,6.5-7.1,10.6-9.8c0.6-0.4,1.3-0.9,1.8-1.4
	c4.6-5.4,10.5-8.8,17.1-11.1c4.4-1.6,8.9-2.7,13.3-4c4-1.1,8-2.3,12-3.3c10.9-2.7,21.5-1.9,31.7,2.8c4,1.9,8,3.8,12,5.7
	c5.2,2.4,10.5,4.2,16.1,5.6c3.4,0.8,6.6,0.2,9.5-1.2c8.9-4.5,18.3-7.2,27.9-9.6c2.7-0.7,5.8-0.2,8.6,0c10.3,0.6,20.6,1.6,31,1.9
	c16.2,0.5,31.9-2,47.4-6.9c5.3-1.7,10.8-2.8,16.3-3.9c6.9-1.3,13.7-0.3,20.4,1.3c4.5,1.1,9,2.3,13.4,3.7c1.4,0.4,2.1-0.4,3-1.1
	c5.5-4.3,10.8-8.8,16.5-12.8c9.8-6.9,20.5-11.9,31.8-15.8c7.6-2.6,15.2-3.3,23.1-1.7c7.8,1.7,15.7,3,23.3,5.7
	c7.3,2.6,13.8,6.5,19.4,11.8c4.2,4,8.3,8.1,12.2,12.4c3.8,4.2,8.1,7.3,13.7,8.7c5.8,1.5,9.6,5.9,13.8,9.7c1.9,1.7,3.6,3.5,5.7,4.8
	c3.4,2.2,5.3,5.2,6.1,9.1c2.8,13.7,0.8,26.7-6,38.9c-1.3,2.3-2.7,4.5-4.1,6.7c-2.4,3.7-4.2,7.6-5.2,11.9c-1.2,5.1-5.8,6.3-9.6,2.6
	c-1.9-1.8-2.8-4.1-2.8-6.7c0-1.1,0.5-2.5-1.1-2.9c-1.4-0.4-2.3,0.7-3.1,1.7c-0.2,0.3-0.5,0.6-0.6,1c-2.8,5.3-6.7,9.6-11.7,13
	c-0.5,0.3-0.9,0.7-1.4,1.1c-2.9,2.5-3.3,4.7-1.7,8.2c0.4,0.9,0.9,1.7,1.4,2.5c2.1,3.4,2,6.8,0.2,10.2c-0.9,1.7-1.8,3.4-3,4.9
	c-3.7,4.8-4.6,10.2-4,16.2c0.5,4.3,1.2,8.5,2.7,12.7c4.2,11.9,7.5,24,9.1,36.5c1.8,14.4,1.6,28.8-2.5,42.8
	c-2.4,8-6.2,15.4-10.3,22.7c-1.9,3.4-3.9,6.7-5.6,10.2c-1.2,2.5-1.8,5.2-2.7,7.9c-0.8,2.5-1.4,5-2.5,7.4c-2.1,4.7-3.6,9.3-2.4,14.6
	c0.2,1-0.5,2.4-1.1,3.5c-0.8,1.4-1.5,2.9-1.7,4.5c-0.2,1.3-0.7,2.6-1.3,3.8c-1.2,2.8-2.4,5.7-3.8,8.5c-3.7,7.4-5.8,15.2-6.4,23.3
	c-1,13.1-5.7,25-11.9,36.3c-1,1.8-2.2,3.4-3.6,4.9c-2,2.3-4.5,3.6-7.7,3.4c-2.6-0.2-4.4,1.1-5.7,3.2c-0.5,0.7-0.9,1.5-1.3,2.3
	c-3.6,7.3-9.8,10.3-17.6,10.7c-4.9,0.3-9.6-1.1-14-3.1c-1.5-0.7-2.8-0.8-4.3-0.1C606.2,676,602.6,676.7,598.6,676.6z M465.1,430.6
	c-0.4,2.7-1,3.8-3.6,5c-8.2,3.9-14.6,9.9-19.2,17.5c-7.6,12.5-12.6,25.8-12.6,40.7c0,2.1-0.1,4.3-0.1,6.4
	c-0.2,12.4-1.8,24.7-5.5,36.6c-1.2,3.7-1.1,7.4-0.8,11.2c0.2,3,0.3,6,0,8.9c-0.4,4.5-1.6,9-0.5,13.5c0.9,3.8,0.9,7.6,0.7,11.5
	c-0.1,1.7-0.1,3.5-0.2,5.2c-0.4,8.8-0.8,17.6-1.4,26.3c-0.3,3.8-0.9,7.7-1.6,11.5c-0.7,3.8-2.8,6.7-6,8.9c-1.4,0.9-2.8,1.8-4.1,2.8
	c-4.5,3.4-7.6,8-8,13.6c-0.5,5.9,0.9,11.8,4.1,16.9c1,1.7,2.4,3.1,3.6,4.7c0.2-1.3-0.2-2.3-0.3-3.3c-0.2-2.1-0.5-4.2-0.4-6.3
	c0.3-3.4,2.6-5.3,6-5.4c3.1-0.1,5.7,1,8,2.9c3.9,3.1,8.1,5.1,12.9,6.3c2.6,0.6,3.4,2.4,2.3,4.9c-0.6,1.3-1.5,2.5-2.2,3.8
	c-0.5,1-0.8,2.2-0.9,3.3c-0.1,0.4,0.4,1.2,0.9,1.3c0.4,0.2,1.3-0.1,1.5-0.4c0.7-1.1,1.3-2.3,1.7-3.6c1.8-5.6,3.6-7.2,9.5-7.7
	c1-0.1,1.9-0.1,2.9-0.1c0.8-0.1,1.5-0.2,2.3-0.3c0.9-0.2,1.9-0.6,1.7-1.6c-0.1-0.7-0.9-1.5-1.6-1.7c-1.2-0.4-2.6-0.5-4.1-0.7
	c3.8-3.7,6.9-7.7,7-13.5c-1.6,0.8-2.9,1.4-4.6,2.3c0.2-0.9,0.4-1.4,0.5-1.9c1.1-2.9,2.2-5.8,3.2-8.7c1.2-3.5,2.6-7.1,3.6-10.7
	c1.5-5.5,2.5-11.1,4.1-16.6c1.5-4.9,2.4-9.9,2.9-15c0.6-6.9,2.3-13.5,5.4-19.7c4.5-9,7.6-18.6,10.7-28.1c2-6.3,3.7-12.9,9.1-17.5
	c0.9-0.8,1.5-1.9,0.7-3.1c-0.7-1.2-1.9-1.3-3.1-1.1c-0.8,0.1-1.8,0.3-2.4,0.8c-1.4,1-2.8,2.1-3.9,3.4c-2.3,3-4.4,6.3-6.8,9.8
	c0.4-1,0.6-1.6,0.8-2.2c2.6-6.7,5.2-13.3,7.7-20c0.5-1.4,0.9-3,0.9-4.5c0-3.3-2.6-4.8-5.6-3.3c-1,0.5-2,1.3-3,1.9
	c1.4-4,3-7.9,4.1-11.8c1.1-3.9,1.8-8,1.4-12.8c-2.2,2.1-4,3.7-5.6,5.5c-1.6,1.8-2.9,3.9-4.7,6.3c0.1-1,0-1.4,0.1-1.7
	c0.9-2.7,2-5.4,2.9-8.2c0.6-2,1.3-4.1,1.4-6.1c0.2-4.7-3.4-7.3-7.9-6.1c-2.7,0.7-4.9,2.1-6.9,4c-4.2,4.1-7.6,8.9-9.6,14.3
	c-2.2,5.8-4,11.7-5.7,17.6c-2.3,7.7-4.2,15.4-6.4,23.2c-0.5,1.7-1.2,3.3-1.9,4.8c-0.7,1.5-1.5,2.9-2.2,4.4c2-6.6,2.6-13.3,3.1-20
	c0.8-9.5,2.7-18.7,6.1-27.6c6.2-16.4,16.4-29.9,30.1-40.8c1.3-1,2.7-2,3.6-3.3c5-6.7,11.5-11.8,18.9-15.5c13.9-7,28.4-12.3,44-13.8
	c9.1-0.9,18,0.2,26,5c9.8,5.8,16.5,14.3,22.3,24.2c8.8,3.1,13.3,5.2,15.3,7.3c-5.2-1.4-10.1-3.5-14.8-4.6c-1.1,2.6-2,4.9-3,7.2
	c6.8-0.1,13.5,0.5,20,2c-2.4,0.9-5,1.7-7.4,2.9c-2.4,1.2-4.4,2.8-5.7,5.5c2.6-0.8,5-1.6,7.4-2.3c0.1,0.2,0.2,0.4,0.2,0.5
	c-4.6,2.6-9,5.5-11.9,10.3c1.8,0.3,3.3,0.6,4.9,0.9c-2.9,1-5.9,1.4-7.9,4.3c2.7,1.7,5.3,3.4,7.8,5.1c2.5,1.7,5.2,3.1,7.7,5.3
	c-5.4,0.6-6.4,1-9,3.2c1.6,1.7,3.7,2.4,5.8,3c2.5,0.7,5,1.4,7.6,1.8c8.7,1.5,14.7,6.4,18.3,14.4c0.4,1,0.9,1.9,1.2,2.9
	c5.1,14,8.1,28.4,8.7,43.3c0.3,8,0.7,16,1,24c0.2,5.1,0.5,10.2,0.3,15.3c-0.3,7-2,13.7-4,20.4c-1,3.5-2.1,7-2.9,10.6
	c-1.1,5,1.2,9.1,5.6,10.7c4.3,1.5,11.8,0.6,15.1-4.3c0.5-0.8,1.1-1.6,1.6-2.4c3.4-5.8,4.8-12.4,6.9-18.7c0.1-0.4,0.1-0.8,0.1-1.2
	c0.3-11.1,0.2-22.2-1.6-33.3c-0.9-5.6-1.1-11.1-0.2-16.7c1.2-7.4,2.2-14.9,3.2-22.4c0.7-5,0.6-10-1-14.9c-1.3-4-2.5-8.1-3.6-12.2
	c-0.3-1.1-0.6-2.3-0.5-3.4c0.2-6.1-1.9-11.2-6.2-15.3c-0.3-0.3-0.5-0.6-0.8-0.9c0.1-0.2,0.3-0.3,0.4-0.5c2,1.3,4,2.7,6.2,4.2
	c-0.4-5.3-1.1-10.2-3.3-15.4c-0.2,1.8-0.3,3-0.4,4.1c-0.6-0.7-0.8-1.4-0.9-2.2c-3.5-17.4-9.7-33.6-20.7-47.7
	c-17.4-22.4-40.1-34.6-68.9-34.4c-4.4,0-8.9,0.3-13.3,0.5c-11.9,0.6-23.6,2.3-35.2,5.1c-8.5,2.1-16.9,4.6-25.7,5.7
	C479.9,425.5,472.4,427.6,465.1,430.6z M469.3,342c0,0.2-0.1,0.4-0.1,0.6c1.4,0.7,2.8,1.6,4.3,2.1c2,0.7,4,1.3,6.1,1.9
	c13.8,4,22,19.7,17.1,33.2c-1.4,3.8-3.2,7.4-4.7,11.2c-0.9,2.3-1.8,4.7-2.3,7.1c-1.4,7.1,1.2,12.9,7.5,16.4c2.4,1.3,5.2,2.2,7.8,2.8
	c6.5,1.4,10.6-1,12.9-7.2c0.2-0.5,0.3-0.9,0.5-1.4c1.7-6.1,2.2-12.4,1.6-18.7c-0.2-2.1-0.6-4.1-1-6.9c4,4.5,5.6,9.3,6.6,15
	c1.9-2.4,3.6-4.4,5.2-6.5c0.3,0.4,0.4,0.4,0.4,0.5c0.1,0.4,0.3,0.7,0.4,1.1c3.2,9.4,9.8,14.8,19.6,16.1c2.1,0.3,4.1,0.1,5.9-0.9
	c3.8-2,4-5.8,0.4-8.1c-0.5-0.3-1.1-0.5-1.5-0.9c-0.7-0.6-1.3-1.2-2.3-2.3c4.6,0.7,5.3,0.5,7.3-1.9c-0.4-0.5-0.8-1-1.2-1.5
	c-11.7-12.7-16.1-27.6-13.5-44.6c1.3-8.5,5.5-14.9,13.1-19.1c0.5-0.3,1-0.5,1.5-0.9c0.5-0.3,1-0.8,1.8-1.4c-2.8-0.7-5.1-1.5-7.5-1.8
	c-4.8-0.6-9.6-0.7-14.4-1.2c-3.4-0.4-6.9-1-10.2-1.7c-2.2-0.5-4.3-1.5-6.2-3.4c0.7,0.1,1.1,0.1,1.5,0.1c5.5,0.7,11.1,1.4,16.6,2.2
	c6,0.9,10-1.4,12.6-6.8c1.7-3.5,4.3-6,8.7-5.5c-0.3-2.5-1.8-4.1-3.6-5.2c-2.2-1.3-4.6-2.3-7-3.5c-2-1-4-1.9-5.9-3.1
	c-2.2-1.3-3.3-3.5-3.7-6c-0.5-3,0.7-4.7,3.7-4.9c2.4-0.2,4.8-0.2,7.2,0c2.4,0.2,4.7,0.8,7.1,1.2c1.3-3.9,4.1-5.6,7.8-5.9
	c2.2-0.2,4.4-0.2,6.7-0.2c1.2,0,2.3,0.2,3.5,0.3c-0.4-0.5-0.8-0.8-1.2-0.9c-6.5-2-13.1-2.7-19.8-1.6c-5.8,1-11.5,2.5-17.2,3.9
	c-6.7,1.7-13.3,4.1-20.1,5.5c-11.5,2.4-23.2,2.9-34.9,3.4c-3.6,0.1-7.3-0.3-11-0.8c-5.9-0.8-11.8-2-17.7-2.7
	c-5.4-0.7-10.6,0.3-15.4,3c-0.8,0.4-1.5,1-2.4,1.7c0.5,0.2,0.7,0.3,0.8,0.3c0.5,0,1-0.1,1.4-0.2c6.3-1.3,12.7-1.4,19-0.4
	c1.3,0.2,2.6,0.6,3.9,1.1c3.1,1.2,4.9,3.4,4.8,6.9c0,0.8,0,1.5,0,2.3c0,2.8,1.4,4.5,4,5.4c0.7,0.2,1.5,0.5,2.2,0.7
	c5.8,1.5,9.2,5.4,11,10.9c1.5,4.6,0.7,8.8-2.4,12.5c-2.3,2.8-5.2,4.6-8.4,6C474,340.3,471.6,341.1,469.3,342z M502.7,592.7
	c0.1,0.1,0.3,0.2,0.4,0.2c0.3,5.1,0.4,10.2,0.9,15.3c0.7,7,2.5,13.7,5.2,20.1c1.6,3.9,4.4,6.8,8.4,8.3c2.4,0.9,5,1.4,7.5,2.2
	c1.6,0.5,3.4,1,4.8,1.9c2.6,1.6,3.2,4.2,1.6,6.7c-0.8,1.2-2.1,2.3-3.4,2.9c-1.4,0.7-3.1,1.1-4.7,1.1c-3,0-5.9-0.5-8.9-0.7
	c-1.5-0.1-3.1-0.3-4.5,0.1c-0.9,0.3-1.9,1.5-2.1,2.4c-0.3,1.3,0.8,2.3,2,2.8c1,0.4,2,0.6,3.1,0.8c2.5,0.5,4.6,1.6,6.3,3.3
	c1,1,1.9,1.9,2.8,2.9c8.2,9.2,18.5,12.1,30.4,10.2c8.6-1.4,16.4-5,24-9c1.7-0.9,3.4-2.3,4.7-3.8c3.2-3.9,1.8-7.7-2.9-9
	c-2-0.6-4.1-1-6.1-1.7c-3-1.1-4.1-4.1-2.5-6.9c0.8-1.3,2.2-2.5,3.5-3.3c1.3-0.8,2.9-1.1,4.4-1.3c2.7-0.5,5.3-0.8,8-1.2
	c4.6-0.7,8.7-2.3,12-5.8c7.1-7.6,11.5-16.4,12.6-26.8c0.6-5.5-0.5-10.6-3.6-15.2c-0.4-0.6-0.9-1.1-1.8-2.1c-0.7,2.3-1.4,4.1-1.7,5.9
	c-0.3,1.9-0.3,3.8-0.4,5.8c-6,0.1-9.8-3.1-13.3-7.3c0.6,2.4,1.2,4.7,1.8,7.1c-2.1,0.3-3.3-0.9-4.3-2.1c-1.7-2.1-3.3-4.3-4.9-6.5
	c-1.6-2.2-3.2-4.5-5.1-7.1c-1.1,5.5-3.6,9.5-8.7,11c-5.2,1.6-9.5-0.5-13.2-4.3c-2.1,4.2-5,6.7-9.5,6.9c-4.6,0.2-7.5-2.4-10-6
	c-2.8,4.6-7.1,6.3-12.1,7.7c1.2-2.2,2.2-4,3.1-5.9c1.5-3.1,2.4-6.3,2.1-9.8c-0.3-4.4-3.7-8.8-7.5-9.7c-3.7-0.9-7.4,1-10.1,5.3
	c-0.3,0.4-0.5,0.8-0.7,1.3c-0.3,0.6-0.6,1.1-1,1.8c-0.6-1.6-0.9-3-1.6-4.2c-1.7-2.9-5-3-6.8-0.2c-3.4,5.4-6.4,11.1-8,17.3
	c-1.5,5.8-3.7,11.4-6,16.9c-2.8,6.8-5,13.8-5.6,21.2c-0.8,9.6,0.5,19.1,2.8,28.2c1.5,1,2.8,0.6,3.9-0.3c2.8-2.2,5.7-4.3,8.4-6.7
	c1.7-1.5,3.3-3.3,4.6-5.2c3.6-5.1,4.8-10.7,3.1-16.8c-0.5-1.9-1.1-3.7-1.8-5.5c-2.8-7-3.5-14.2-2-21.6
	C500.7,600.5,501.7,596.6,502.7,592.7z M474.1,655.4c-0.1,0-0.2,0-0.2-0.1c-0.3,1-0.6,2-0.8,3c-0.6,3.5-1.1,7.1-1.7,10.6
	c-0.7,4.2-1.3,8.4-2.4,12.5c-1.9,7-6.2,11.7-13.8,12.7c-2.1,0.3-4.2,0.8-6.2,1.4c-6,1.5-9.5,5.6-10.4,11.5
	c-1.1,6.6,0.7,8.2,5.9,10.2c0.7,0.3,1.5,0.5,2.2,0.6c4.1,0.4,8.3,1,12.4,1c2.5,0,5.1-0.3,7.4-1.2c10.6-4.2,21-8.8,29.2-17.3
	c0.5-0.6,1.1-1.1,1.8-1.5c2.4-1.8,5-2.6,7.9-1.4c2.6,1.1,5.1,2.3,7.5,3.6c7.4,4.1,15.2,6.7,23.6,7.3c18.2,1.3,33.8-4.5,46.8-17.4
	c3.6-3.6,6.5-7.6,7.7-12.7c0.1-0.7,0.4-1.3,0.7-1.9c1.1-2.9,3.1-4.5,6.3-4.6c2.3-0.1,4.7-0.3,6.8-1c4.1-1.4,5.5-4.6,3.6-8.4
	c-1.2-2.5-1.1-4.8,0.1-7.2c0.6-1.3,1.4-2.6,2.1-3.8c1.9-3.1,3.3-6.4,3.9-9.9c0.7-4,0.9-8.1-0.3-12c-0.5-1.8-1.4-3.4-3.8-3.5
	c-1,1.8-1.8,3.7-2.9,5.3c-1.7,2.4-3.4,4.7-5.4,6.7c-1.7,1.8-3.9,2.7-6.5,2.6c-2.1-0.1-4.2,0.2-6.1,1.5c-0.2,2.5,0.7,4.8,1.5,7
	c1.4,3.9,0.9,7.5-1.6,10.7c-6.7,8.7-14.6,16.1-24.8,20.5c-13.3,5.7-26,4.8-37.6-4.5c-1.9-1.5-3.7-3.1-5.6-4.6
	c-4.4-3.3-8.6-7-13.3-9.8c-7.5-4.5-11.6-3.5-17.2,1.7c-1.5,1.4-3.1,2.7-4.8,3.8c-3.9,2.4-7.7,1.5-10.3-2.3c-1.3-1.9-1.7-4.1-1.7-6.3
	C474.1,657.3,474.1,656.3,474.1,655.4z M641.3,342.4c-0.1,0.1-0.3,0.3-0.4,0.4c-0.8-0.7-1.6-1.4-2.4-2.1
	c-5.7-4.6-11.3-9.4-17.3-13.7c-9.6-7-20.1-12.2-31.4-15.8c-8.5-2.7-15.5,0.4-22.2,5.2c-0.2,0.1-0.3,0.3-0.4,0.4
	c-1.1,1.3-0.9,2.4,0.7,2.9c1.2,0.4,2.5,0.5,3.7,0.6c3.5,0,7,0,10.4-0.1c10.9-0.2,21,2.8,30.3,8.3c5.2,3.1,9.6,7.2,13.7,11.5
	c6,6.2,12.8,11.1,20.6,14.8c13.4,6.3,22.8,16.7,29.5,29.7c5.1,9.9,7.5,20.5,8.6,31.4c1.3,13,3.9,25.8,7.5,38.3
	c3.1,10.8,6.4,21.5,8,32.6c1.2,8.4,1.8,16.8,0.3,25.1c-1.2,6.5-2.9,13-4.3,19.5c-0.2,1-0.5,2-0.8,3c0.8-0.4,1.2-1,1.5-1.6
	c6.8-12.2,10.5-25.3,10.5-39.3c0-6.8-0.8-13.7-1.6-20.5c-1.8-15.2-4.1-30.2-8-45c-1.6-6-1.9-12-0.8-18.1c0.6-3,1-6.1,1.5-9.1
	c1.1-7.1-0.2-13.7-4.2-19.6c-1.9-2.7-3.8-5.4-5.9-7.9c-6-7-11.4-14.4-16.4-22.1c-5.2-8-10.5-16-16-23.8
	c-10.1-14.2-23.5-24.1-39.7-30.5c-10.4-4.1-21.1-6.8-32-9.2c-2.1-0.5-4.3-0.8-6.4-1.2c-0.8,1.9-0.4,3.3,0.7,4.3
	c1.3,1.2,2.8,2.4,4.4,3.2c4.1,2,8.3,3.7,12.4,5.5c0.8,0.4,1.6,0.8,2.4,1.2c-10.4-2.9-20.8-5.6-31.5-6.6c-1.3,2.8-0.9,5,1.6,6.4
	c1.9,1.1,4,1.9,6.2,2.3c6,1.3,12.1,2.4,18.2,3.5c7.8,1.5,15.3,3.9,22.1,8.3C625.5,321.9,633.7,331.9,641.3,342.4z M474.8,359.6
	c-1.1,0-1.8,0-2.5,0c-8.1-0.6-16,0.5-23.7,2.8c-6.1,1.8-11.6,4.7-17.2,7.7c-5,2.6-10.1,4.8-15.7,5.7c-2.8,0.5-5.5,0.9-8.3,1.4
	c-5.3,1-10.2,2.9-14,7c-2.7,2.9-5.4,5.8-7.8,8.9c-7.1,9.3-12.3,19.4-13.8,31.2c-0.7,5.2-0.4,10.2,1.9,15c1,2,2.1,2.4,3.8,1.1
	c1.1-0.8,2.1-2.1,2.7-3.3c0.6-1.3,0.8-2.8,1.2-4.2c1-4,1.7-8.1,2.9-12.1c2.8-9.2,7.5-17.4,15.1-23.6c6.9-5.6,14.6-8.9,23.7-8.4
	c1.4,0.1,2.9,0,4.3,0.1c2.4,0.1,4.3-0.8,5.9-2.5c0.9-1,1.8-2,2.7-3c5.2-6.1,11.7-10.3,19.3-12.8c2.8-0.9,5.6-1.7,9.2-1.6
	c-1,0.8-1.6,1.2-2.1,1.7c-2.7,2.6-5.6,5.1-8,7.9c-5.1,6.1-6.5,13.2-4.2,20.7c4,13,13.3,20.5,26.2,23.6c3.4,0.8,6.9,0.4,10.2-1.3
	c4.5-2.4,5.4-6.1,2.7-10.4c-1-1.5-2.2-2.9-3.3-4.4c-2.5-3.4-3.5-7.4-2.8-11.5c0.6-3.1,1.5-6.2,2.5-9.2c1.1-3.5,2.6-6.9,3.5-10.4
	c2.1-7.7,0.1-14.6-5.3-20.3c-6.5-7-14.8-8.7-23.9-7.3c-2.5,0.4-5,1.2-7.9,2c0.9-1.3,1.5-2.3,2.3-3.1c2.1-2.1,4.2-4.3,6.6-6
	c4.2-2.9,8.7-5.4,12.9-8.2c2.2-1.5,4.5-3.1,6.1-5.2c3.5-4.5,1.3-9.7-4.4-10.4c-2.7-0.3-5.7-0.3-8.3,0.3c-8.7,1.9-15.5,6.8-20.9,13.7
	c-2,2.5-4,4.9-6.4,7.1c-6.3,5.6-12.5,11.3-18.6,17c-1.5,1.4-3,3.1-4.2,4.8c-1.1,1.5-1.9,3.1-1.5,5.1c2.2,0,2.2,0,4.6-1.4
	c13.3-7.7,27.7-11.1,43.1-10c2.7,0.2,5.3,0.8,7.7,2.2C472.8,356.5,474,357.6,474.8,359.6z M697.5,321.8c2.1-4.5,5.3-7.3,10-8.5
	c1.1-0.3,2.3-0.3,3.4-0.6c2.2-0.5,3.1-2,2.4-4.1c-0.5-1.2-1.2-2.4-2.1-3.5c-3.7-4.3-7.5-8.6-11.2-12.9c-2.5-2.8-5.3-5.2-8.8-6.5
	c-7.6-3-15.3-5.9-23-8.6c-1.5-0.5-3.3-0.5-4.8-0.3c-3,0.5-4,3.3-2,5.6c0.9,1.1,2.1,2,3.3,2.7c1.8,1.1,3.7,2.1,5.5,3.2
	c2.1,1.3,4,2.8,5,5.1c1.9,4.1-0.4,8.1-4.9,8.1c-2.5,0-4.4,0.7-5.1,3.1c-1.8,0-3.4,0-5.1,0c-3.1,0.1-5.9,1.1-8,3.5
	c-2.6,3-2.8,6.8-0.5,10c3.5-8.7,10-11.1,15.6-5.6c-0.9,3.5-1.7,7.2-2.8,10.8c-1.2,3.8-0.5,7.1,1.5,10.5c4,6.5,8.5,12.7,14,18
	c7.7,7.3,13.6,16,19.3,24.9c2.3,3.6,4,7.5,5.1,11.6c1.5-3.4,1.2-6.8-0.1-10.2c-1.3-3.5-3.6-6.4-6.1-9.1c-2.2-2.4-4.6-4.7-6.7-7.2
	c-7-8.1-12-17.3-14.9-27.6c-1.3-4.5-1.9-9.1-0.9-13.7c1-4.4,3-8.2,6.7-10.8c1.4-1,3-1.7,4.9-1.2c0,0.8,0,1.6,0,2.3
	c-0.2,4.1-0.6,8.3-0.7,12.4c-0.1,3,1.2,5.4,3.9,6.9c2.5,1.4,2.9,3.4,1.4,5.9c-0.6,1.1-1.5,2-2.3,3c-1.9,2.4-2.3,5.1-1.1,7.9
	c0.6,1.4,1.4,2.8,2.4,3.9c1.4,1.7,3.1,3.2,4.7,4.7c4,3.6,7.4,7.6,9.3,12.7c0.1,0.4,0.3,0.7,0.5,1c1.1,1.8,2.9,2.2,4.3,0.6
	c1.2-1.3,2-3,2.8-4.7c0.7-1.7,1.2-3.5,1.7-5.2c1.3-3.8,3.8-6.7,7.3-8.7c0.6-0.3,1.2-0.7,1.8-0.9c3.8-1.3,6.6,0.2,7.3,4.2
	c0.3,1.8,0.2,3.7,0.4,5.5c0.2,1.4,0.6,2.7,2.2,3.1c1.7,0.5,2.5-0.7,3.3-1.8c2.4-3.7,4.8-7.6,5.6-12c1.1-5.7,3.4-10.8,7-15.4
	c3.9-4.9,4.2-10.3,1.8-16.1c-1.5-3.7-2.5-7.7-3.7-11.6c-0.4-1.3-0.6-2.6-1-3.9c-1.1-3.5-3.2-6.1-6.5-7.8c-1-0.5-2-1.1-3.1-1.6
	c-5.8-2.7-11.3-5.9-16.5-9.7c-0.7-0.5-1.6-0.9-2.3-1.3c-1.4,0.9-0.9,1.9-0.6,2.8c0.9,2.9,1.9,5.9,2.9,8.8c0.6,1.7,1.1,3.4,1.9,5.6
	c-1.7-0.4-2.9-0.7-4.1-1.1c-4.5-1.7-7.1-5.2-9.2-9.2c-5.7-10.7-14.7-17.2-26.3-20.1c-5.9-1.5-11.9-1.5-18.5,0
	c1.1,0.4,1.6,0.7,2.1,0.8c8.8,1.7,16.6,5.7,23.9,10.7c7.9,5.3,15,11.5,22.1,17.8c3.4,3,5.7,6.8,6.9,11.2c1,3.7,1.9,7.5,2.6,11.3
	c1.4,7.1,2.6,14.3,2.5,21.6c0,1.7-0.3,3.3-0.4,5c-1.7-6.5-4.8-11.9-9.6-16.4C709.5,326.5,703.8,323.9,697.5,321.8z M599.8,404.2
	c-1.3-4-2.6-8-3.8-12c-0.9-3-0.6-6,1.2-8.6c2.6-3.8,2.7-7.9,1.8-12.2c-0.6-3.1-2.1-5.3-4.8-6.9c-2.1-1.2-4.1-2.5-6.1-4
	c-2.3-1.7-3.9-3.9-4.2-7c-0.3-2.6-0.9-3.2-3.5-3.4c-2.6-0.2-5.2,0-7.8,0.1c-1.6,0-3.2,0.2-5.3,0.3c1.9-2.2,3.5-3.6,5.4-4.8
	c3.2-1.9,6.6-3.2,10.2-4c13.6-2.7,26.9-1.4,39.9,3.5c1.3,0.5,2.6,1,3.8,1.5c-4.1-4.6-8.4-9-12.7-13.2c-1.1-1-2.5-1.9-3.9-2.4
	c-5.1-1.7-10.3-2.9-15.6-2.5c-4,0.4-7.9,0-11.7-1.1c-2.2-0.6-4.4-0.4-6.5,0.7c-2.9,1.4-5.8,2.6-8.7,4c-2.5,1.2-5.1,2.4-7.4,3.9
	c-4.1,2.5-6.9,6.1-8.3,10.8c-0.6,2.1-1.3,4.2-1.9,6.4c-2.1,7.4-1.4,14.5,2.5,21.2c3,5.2,6.1,10.3,10,14.9c1.8,2,2.3,4.2,1.2,6.7
	c-0.5,1.1-0.8,2.2-1,3.3c-0.8,5,1.8,8,6.8,8.1c3.3,0.1,6.6,0.3,9.8,0.5c2.9,0.2,5.8,0.5,8.7,0.7c2.5,0.2,4.5-0.5,5.8-3
	c0.8-1.7,2.4-2.2,4.2-1.8C598.7,403.9,599.4,404.1,599.8,404.2z M373.5,456.4c-0.4,0.6-0.6,0.7-0.6,0.8c-0.9,7.3-1.4,14.6-0.9,22
	c0.5,7.4,0.8,14.9,1.5,22.3c0.9,9.9,1.7,19.8,3.1,29.7c2.3,17.4,6.1,34.6,9.6,51.8c2.1,10,6,18.9,13.1,26.4c0.9,0.9,1.7,1.9,2.7,2.6
	c3,2.3,5.9,1.7,7.7-1.7c0.6-1.2,1.2-2.5,1.4-3.8c0.7-3.7,1.5-7.4,1.8-11.1c0.6-6.5,0.8-13.1,1.2-19.7c0.4-7.2,1.3-14.2,3.8-21
	c0.1-0.3,0-0.7,0-1.5c-1.4,1-2.6,1.6-3.6,2.5c-2.8,2.6-4.3,5.9-4.9,9.6c-0.7,3.7-1,7.5-1.7,11.2c-0.9,4.2-2,8.4-3.2,12.6
	c-0.5,1.8-1.8,2.8-3,2.7c-1.3-0.1-2.7-1.5-2.9-3.2c-0.2-1-0.2-2.1-0.1-3.2c0.2-11-0.9-22-2.1-33c-0.8-7.6-1.6-15.2-2-22.8
	c-0.4-6.9-0.2-13.9-0.3-20.9c-0.1-5.7-0.4-11.4-2.2-16.9c-1.8-5.6-4.7-10.6-7.8-15.5C380.1,470.1,375.9,463.9,373.5,456.4z
	 M362,560.5c-0.3-3.9-0.9-7.5-0.8-11.1c0.1-5.1,0.6-10.2,0.8-15.3c0.2-5.8,0.8-11.6,0.4-17.4c-0.7-10.4-2.1-20.8-3.2-31.1
	c-1.3-12-1-23.9,3-35.5c3.9-11.3,6.1-22.9,7.1-34.8c1-11.2,3.3-22.2,7-32.8c6.2-17.6,15.7-32.9,30.6-44.6c2.5-2,4.7-4.3,6.9-6.6
	c1.8-1.9,3-4.2,3.5-7.5c-1.1,1.2-1.7,1.9-2.3,2.6c-4.8,5.1-9.3,10.3-14.3,15.2c-5.7,5.5-11.7,10.7-17.6,16c-5.2,4.6-9,10-11.2,16.6
	c-0.9,2.8-1.9,5.7-2.6,8.6c-2.4,10.6-6.3,20.7-12.1,29.9c-1.7,2.7-3,5.7-4.1,8.6c-3.3,8.5-3.9,17.5-4.1,26.5
	c-0.2,8.1-0.7,16.2-1.4,24.3c-1.1,11.7-2.2,23.5-1.5,35.3c0.3,4.7,0.6,9.5,0.5,14.2c-0.2,11.4,3.5,21.8,8.3,31.9
	C356.4,556.7,358.8,558.9,362,560.5z M339.7,497.6c-1.5,6.6-1.4,13.3-1.2,19.9c0.1,3.1-0.1,6.2-0.3,9.3c-0.7,9.6-1.6,19.3-2.1,28.9
	c-0.4,8.7,0.5,17.4,2.7,25.9c3.2,12.2,10.2,21.8,20,29.4c10.8,8.4,21.8,16.6,32.8,24.9c0.5,0.4,1.1,0.8,1.7,1.1c1.7,1,3,0.9,4-0.1
	c1.1-1,1.4-2.7,0.6-4.3c-0.7-1.2-1.6-2.4-2.6-3.4c-3.3-3.4-6.7-6.7-10-10.1c-6-6.2-11.2-13.1-14.6-21.1c-2.4-5.7-4.5-11.5-6.5-17.4
	c-3.3-9.7-7.1-19.2-12.6-27.9c-1.8-2.9-3.2-6.3-3.9-9.6c-2.5-12.2-4.6-24.5-6.8-36.7C340.4,503.5,340.1,500.5,339.7,497.6z
	 M374.8,305.3c0-0.2,0-0.4,0-0.6c6.7-0.8,13-2.5,18.3-6.5c-7-2.2-13.9-4.4-20.8-6.5c-6.5-1.9-13-3.7-19.5-5.3
	c-4.3-1.1-8.5-0.7-12.6,1.4c-2.7,1.4-5.7,2.3-8.5,3.6c-3,1.3-6.1,2.6-8.8,4.4c-4.9,3.2-9.6,6.8-14.3,10.3c-0.7,0.5-1.3,1.2-1.8,1.9
	c-6.1,9-10.6,18.6-11.2,29.7c-0.3,5.4-0.6,10.8-1,16.2c-1.2,17.3-4.2,34.3-8.5,51.1c-0.3,1-0.5,2.1-0.8,3.1
	c3.4-3.9,5.1-8.5,6.3-13.3c2.2-8.9,2.6-18,3.5-27c0.9-9.3,1.9-18.6,4.1-27.8c2.8-11.7,7.3-22.6,14.5-32.3c3.2-4.2,6.8-7.9,11.4-10.6
	c6.2-3.6,12.9-6.1,19.9-7.8c1.5-0.4,3.1-0.2,4.7-0.3c0,0.2,0.1,0.4,0.1,0.6c-3,1.6-6.6,2-9.2,4.5c2.1,0.1,4.1,0.2,6.2,0.3
	c0,0.1,0,0.2,0,0.3c-2.1,0.3-4.1,0.6-6.6,0.9c1.8,0.9,3.1,1.6,4.4,2.3c0,0.2,0,0.4,0,0.6c-2.5,0.1-5,0.3-8.1,0.4
	c3.1,2.1,6.2,2.7,8.6,4.4c-3.8,1.4-7.6,2.5-11.1,4.2c-7.4,3.6-13.5,9-18.6,15.4c-1.3,1.6-1.9,3.7-2.7,5.7c-0.2,0.5,0,1.2,0.1,2.3
	c0.8-0.9,1.2-1.4,1.6-1.9c4.8-6.2,10.9-10.6,18.1-13.6c10.8-4.5,22-5.3,33.5-4c0.5,0.1,1,0.2,1.4,0c4.8-1.3,9.5-2.5,13.8-5
	c0.5-0.3,1-0.7,1.9-1.4C380,305.3,377.4,305.3,374.8,305.3z M319.4,381.6c0.7-0.1,1.1-0.2,1.6-0.2c5.6-0.7,9-3.8,9.4-9.5
	c0.2-2.5-0.2-5-0.4-7.5c-0.1-1.1-0.4-2.3-0.7-3.4c0.1-0.1,0.3-0.1,0.4-0.2c1.2,1.8,2.5,3.5,3.6,5.1c0.5-2.8,0.6-5.6,1.4-8.2
	c1.4-4.2,4.3-5,7.8-2.4c1.9,1.4,3.7,3.1,5.6,4.6c2,1.7,4.1,3.4,6.1,5.1c0.2-0.1,0.3-0.2,0.5-0.3c-0.7-1.3-1.4-2.7-2.2-3.9
	c-1.7-2.5-3.4-4.9-5.2-7.3c-3-4.2-4.5-8.9-4.9-14c-0.2-2.6-0.3-5.2-0.6-7.8c-0.3-2.3-0.7-4.6-1.6-6.7c-1.3-3.2-3.9-4.1-7.1-3
	c-0.6,0.2-1.3,0.5-1.8,0.8c-7.7,4.4-14.8,9.4-20.8,16.1c-4.4,4.9-7.7,10.4-8.9,17c-1,5.5,1.4,9.2,6.8,10.5c2.1,0.5,4.2,0.6,6.2,1.2
	c2.1,0.6,4.3,1.3,6.1,2.5c3.3,2.2,3.6,6,1,9C321.2,379.8,320.4,380.5,319.4,381.6z M396.2,466.4c1.4,2.8,3.1,4.7,4.1,7
	c-5.6-3.5-8.8-8.9-11.8-14.7c-0.3,0.7-0.5,1.4-0.5,2c-0.1,6.7,1.2,13,3.4,19.3c1.6,4.3,2.8,8.8,4.3,13.2c0.8,2.3,1.6,4.6,2.8,6.6
	c2.1,3.4,5.4,4.5,9.3,3.3c1.8-0.5,3.6-1.4,5.4-1.9c1.4-0.5,2.9-0.7,4.8-1.2c-0.4,1.4-0.5,2.2-0.8,3c-1.9,4.6-3.9,9.3-5.8,13.9
	c-2.2,5-4.6,10-6.7,15.1c-2.7,6.8-4.2,13.9-3.5,21.3c0.2,2.1,0.5,4.2,1.4,6.6c0.9-2.9,1.4-5.4,2.4-7.6c2.5-5.4,5.3-10.7,7.8-16.2
	c2-4.2,4.1-8.4,5.4-12.8c3.2-10.3,3.5-21.1,4.5-31.8c0-0.3-0.2-0.7-0.3-1c-1.9-0.3-3,0.9-4,2.1c-1.1,1.3-2,2.8-3.1,4.2
	c-1,1.3-2,2.5-3.9,2.8c1.1-2.9,3.2-5.8,6.5-8.9c1-0.9,2-1.8,2.9-2.8c1-1,1.7-2.3,0.9-3.7c-0.8-1.4-1.8-2.8-3-3.8
	c-1.6-1.3-2.9-1.1-4.4,0.4c-0.7,0.7-1.2,1.5-1.9,2.2c-1.6,1.6-3.2,1.7-4.8,0c-1-1.1-1.8-2.5-2.5-3.9c-1-2.1-1.8-4.3-2.8-6.4
	C401.3,470,399.5,467.9,396.2,466.4z M671.8,611.4c1-4.3,1.3-8.6,0.6-13c-0.9-6.6-1.9-13.2-2.9-19.8c-1.4-9.2-0.9-18.2,2.9-27
	c5.6-12.6,5.4-25.5,0.4-38.4c-3.3-8.5-8.1-16.2-13.3-23.7c-0.4-0.6-1-1.1-1.5-1.6c0.3,2.6,1,5,1.5,7.4c2,8.3,4.1,16.5,5.7,24.8
	c0.9,4.7,0.9,9.6-0.2,14.4c-0.3,1.4-0.3,2.8-0.4,4.2c0,5,0.5,10.1-0.1,15c-0.7,6.1-2.1,12.2-3.4,18.2c-2,8.9-2.2,17.6,1,26.3
	c0.8,2.1,1.2,4.3,1.8,6.4c0.1,0.3,0.3,0.6,0.7,1.4c2-4.9-0.3-9.4-0.1-14.4C669.2,598,670.8,604.5,671.8,611.4z M670,474.4
	c-1.1,2.1-2.1,4.3-3.2,6.4c-0.2-0.1-0.5-0.2-0.7-0.3c0.4-1.4,0.6-2.8,1.2-4.1c1.3-2.6,2.9-5,4.4-7.5c1.9-3.2,4.2-6.3,5.7-9.7
	c3.6-8.1,4.3-16.8,4-25.5c0-1.1-0.3-2.3-0.7-3.4c-1.4-4-5-5.1-8.2-2.4c-1.1,0.9-1.9,2.2-2.5,3.4c-0.7,1.6-1,3.3-1.6,4.9
	c-0.9,2.4-1.6,5-2.9,7.2c-2.4,4.1-6.2,6.3-10.9,6.5c-1.2,0.1-2.5-0.1-3.5-0.2c1.4,2.8,3,5.6,4.2,8.5c5,13.2,9.8,26.4,14.7,39.6
	c0.3,0.7,0.5,1.4,0.7,2.1C671.8,491.3,671.3,482.8,670,474.4z M683.9,465.9c-0.8,6.4-1.6,12-2.2,17.6c-0.8,7.6-1.3,15.2-0.3,22.9
	c0.4,3.6,0.9,7.3,1.3,10.9c0.6,6.7,0.1,13.3-0.5,20c-1.3,14.6-3.1,29.2-6.4,43.6c-0.6,2.6-1.2,5.2-1.8,7.8c0.7-0.3,1.1-0.7,1.4-1.2
	c1.7-3.5,3.6-6.8,5-10.4c3.1-7.7,4.2-15.9,5.3-24c1.2-9.1,2.3-18.2,3.3-27.3c1-8.8,1.9-17.7,2.7-26.5c1-11.3-2-21.8-6.8-31.9
	C684.5,466.9,684.4,466.7,683.9,465.9z M389.7,428.5c1.5-1.4,2.6-2.5,3.8-3.6c6.1-5.4,13.3-8.9,20.9-11.6c3.2-1.1,6.7-1.2,10-0.2
	c3.7,1.1,7.3,2.4,11,3.6c2.4,0.8,4.8,1.9,7.6,1.9c-0.6-3.3-2.4-5.6-4.8-7.5c-2.3-1.8-4.8-3.3-7.4-5.1c1.7-0.2,3-0.2,4.3-0.6
	c3.4-0.9,4.4-4.3,1.7-6.6c-1.3-1.2-3.1-2-4.8-2.5c-12.7-3.6-26.9,1.8-34.2,13C394.1,415.1,392.1,421.7,389.7,428.5z M670.7,388
	c0.2-0.1,0.3-0.2,0.5-0.3c-0.4-0.9-0.7-1.7-1.1-2.6c-2-4.2-4.7-8-7.8-11.4c-10.4-11.3-23.2-18.5-38.6-20.4
	c-4.4-0.6-8.9-0.5-13.3-0.6c-5-0.1-10-0.3-14.9-1.7c-0.6-0.2-1.1-0.2-2.2-0.5c0.9,0.9,1.3,1.4,1.8,1.9c6.6,6.2,14.3,10.4,23.1,12.6
	c5.1,1.3,10.3,1.5,15.5,1.8c4.6,0.2,9.3,0.5,13.8,1.4c8.5,1.6,14.6,7.1,19.5,14C668.2,384.1,669.4,386.1,670.7,388z M336.7,416.4
	c1.8,0.9,3.1,1.5,4.6,2.3c-2.6,1.7-5.4,3-7.5,5.4c1.7,1.4,3.2,2.6,4.9,4c-1.9,1.5-3.8,3-5.8,4.6c2.7,0.6,4.1-0.3,5.2-2.4
	c4-7.9,8.3-15.7,12.3-23.6c4.4-8.8,8.8-17.6,11.5-27.2c1-3.6,2-7.3,1.6-11.1c-0.2-2.8-1-5.4-2.9-8c0.3,2.3,0.6,4.1,0.9,6.3
	c-1.9-0.4-3.3-0.7-4.9-1c0,0.3,0.1,0.6,0.1,0.8c0.1,0.3,0.2,0.7,0.4,1.3c-2.8-1.4-5.1-3-8-3.1c0.3,1.1,0.6,2.1,0.8,3.1
	c-0.2,0.1-0.3,0.2-0.5,0.3c-1.6-1.5-3.3-3.1-4.9-4.6c1.3,7,4.6,12.9,8.9,18.5c-1.7,0.8-2.9,1.4-4.7,2.2c3.9,1.5,4.1,4.5,3.5,7.6
	c-0.5,2.2-1.9,3.8-3.8,4.9c-1.9,1.1-3.3,2.5-2.2,4.7c-2,1.6-3.7,3.1-5.5,4.5c0.9,0.7,1.6,1.2,2.3,1.8
	C340.9,410.6,338.9,413.3,336.7,416.4z M339,382.4c-1.1,0.9-2.3,1.8-3.6,2.7c-1.4,0.9-2.7,1.9-4.2,2.5c-6.8,3-13.5,6.3-21.4,4.7
	c-2.1-0.4-2.5,0.2-2.6,2.4c-0.4,8.4,5.5,15.7,13.8,17.2c4.9,0.8,8.1-1.2,9.3-6c0.1-0.6,0.2-1.1,0.4-1.7c0.8-2.6,2.2-4.8,4.6-6.1
	c2.5-1.3,4.2-3.4,5.5-5.8c2.5-4.2,3.4-8.9,4.1-14c-1.8,2.5-2.6,5.3-5.3,7.1C339.2,384.1,339,383,339,382.4z M283.6,330.4
	c-1.7,0.8-2.8,1.4-3.9,1.9c-7.6,3.8-7.7,4-7.9,12.5c-0.2,6.4-0.4,12.7-0.5,19.1c0,6-0.6,11.9-2.8,17.6c-1.4,3.6-1.1,7.2,0.4,10.7
	c0.8,2,1.8,3.8,2.7,5.8c1.1,2.6,2,5.2,3.1,7.8c0.2,0.4,0.4,0.9,0.9,1.8c1-3.6,1.9-6.7,2.7-9.7c1.2-4.4,1.3-8.9,0.7-13.5
	c-0.8-5.5-1.6-11.1-1.7-16.7c-0.2-7.8,1.2-15.6,3-23.2C281.3,340.1,282.4,335.6,283.6,330.4z M365,352.5c0.1,0.3,0.2,0.6,0.2,0.9
	c1.3,0.3,2.6,0.4,3.8,0.9c1.3,0.6,2.2,0.1,3.1-0.8c2.8-2.9,5.8-5.6,8.5-8.7c1.5-1.7,2.6-3.9,3.4-6c1.8-4.6,0.7-8.8-2.6-12.3
	c-3.4-3.5-7.6-5.2-12.4-5.6c-3.7-0.3-5.6,1.2-6.6,4.7c-0.9,3-0.5,5.9,0.8,8.7c1.3,2.7,1.2,2.7-1.2,4.2c-0.5,0.3-0.9,0.9-1.5,1.5
	c1.9,1.1,3.5,2.1,5.3,3.1c-1.1,0.4-2,0.8-3.2,1.3c1.7,0.8,2.9,1.4,4.3,2c-0.3,0.4-0.6,0.7-0.9,1c1,0.4,1.9,0.8,3.4,1.5
	C367.6,350.3,366.3,351.4,365,352.5z M410.4,341.9c0.1,0.2,0.3,0.3,0.4,0.5c0.7-0.6,1.4-1.2,2.1-1.9c3.4-3.2,6.7-6.4,10.1-9.6
	c6.7-6.2,14.1-11.3,22.6-15c3.4-1.5,7-2.8,10.4-4.3c2-0.9,4.1-1.8,5.9-3.1c2.9-2,4.9-4.6,5.2-8.3c0.2-2.6-0.8-3.7-3.5-3.8
	c-4.6-0.2-9,0.8-13.2,2.6c-6,2.6-10.7,6.9-14.8,11.9c-7,8.5-14,17-20.9,25.6C413.2,338.3,411.8,340.1,410.4,341.9z M615.2,384.5
	c4.7-0.7,9.3-1.8,14.1-1.2c-4,1-8.1,1.4-11.9,4.3c2.8-0.4,5-0.9,7.3-1.1c2.3-0.2,4.7-0.2,7.4,1.2c-5,1-9.1,2.5-12.1,6.2
	c12-2.4,23.6-1.5,35.4,3.4c-1.8-3.7-5.3-5.4-6.6-9c6.1,0.3,11.3,2.5,16.3,5.2c-3.6-6.9-8.9-11.6-16.2-14c-5.4-1.8-11-2.1-16.5-2.6
	c-5.2-0.5-10.2,0.1-15.2,1.4c-0.6,0.2-1,0.5-1.6,0.8c2,0.5,3.8,0.5,5.6,0.6c1.7,0.1,3.5,0.3,5.2,0.6c1.7,0.3,3.3,0.7,5,1
	C625.8,381.4,620.3,381.9,615.2,384.5z M636.5,301.8c-0.2,0.9-0.4,1.5-0.5,2.2c-0.2,1.7,0.4,2.7,2.1,2.9c4.5,0.6,9,0.6,13.4-0.9
	c3-1.1,4.7-3.3,5-6.5c0.1-1.1,0.2-2.3,0.1-3.5c-0.2-3.5-1.2-4.8-4.5-5.8c-1.3-0.4-2.6-0.7-3.9-1.1c-1.2-0.4-2.7-0.9-2.7-2.2
	c0.1-1,1.2-2,1.9-3c0.3-0.4,1-0.6,1.4-1c0.4-0.3,0.9-0.5,1.1-0.9c0.3-0.6,0.9-1.6,0.7-2c-0.3-0.6-1.3-1.2-2-1.3
	c-0.9-0.1-1.9,0.1-2.8,0.5c-5.3,2.3-10,5.5-14,9.6c-1.6,1.6-2,3.6-1,5.6c0.7,1.5,1.6,2.8,2.6,4.2
	C634.4,299.7,635.4,300.7,636.5,301.8z M527.1,549.2c8.2-6.3,16.8-8.1,26-4.7c1.7-0.7,3.1-1.9,4.2-1.7c1.9,0.3,3.6,0.3,5.3-0.1
	c0.6-0.1,1.4,0.1,2,0.4c2,0.9,4,1.9,6,2.7c0.6,0.3,1.4,0.2,2.1,0.3c0-0.8,0.1-1.6,0.1-2.4c0-0.3-0.4-0.7-0.6-1
	c-5-6.2-11.2-10.6-19.1-12.1c-3.1-0.6-6.2-0.4-9,1.2c-6.3,3.5-11.7,8.1-15.4,14.5C528,547.2,527.6,548.2,527.1,549.2z M369.3,576.2
	c0.3,0.8,0.6,1.6,1,2.3c4.8,9.6,9.6,19.2,14.5,28.7c3.9,7.7,8.4,15,14.1,21.5c0.7,0.8,1.4,1.5,2,2.2c6.1-2.6,9.9-8.4,9.3-14
	c-4.8,1.8-9.1,0.6-13.1-2.2c-1.5-1.1-2.9-2.3-4-3.8c-1.8-2.5-3.6-5.1-5-7.8C383.3,593.2,376,584.8,369.3,576.2z M442.2,430
	c0.2,1.2,0.2,1.9,0.3,2.5c1.1,7.4-2.6,14.8-9.1,17.8c-6.9,3.3-15.1,1.7-20.1-4c-1.9-2.2-3.3-4.7-5-7.1c-0.4-0.6-0.7-1.2-1.1-1.7
	c-1-1.1-2.3-0.9-2.5,0.6c-0.2,1.3-0.2,2.7,0.2,4c0.9,2.8,1.9,5.5,3.1,8.1c2.8,6.1,9.6,9.6,16.3,8.4c5.8-1,11-3.6,15.9-6.7
	c2.5-1.6,4.3-4,4.6-7c0.4-3.1,0.5-6.3,0.5-9.5C445.2,433.5,444.5,431.6,442.2,430z M521.1,488.1c2.2-0.1,4.2,0.5,6.2,0.6
	c5,0.3,8.1-2.5,9.2-7.4c0.3-1.2,0.5-2.5,0.5-3.7c0.3-8.5-0.6-16.9-2.4-25.3c-0.4-1.9-1.3-3.5-3.1-4.4c-2.4-1.2-4.9-2.3-7.3-3.3
	c-0.3-0.1-0.8,0-1.2,0c4.6,3,5.7,8,7.3,12.8c-1.5,1.9-1.2,4,0,5.9c-0.4,1-1,1.9-0.8,2.6c0.2,0.9,0.9,1.8,1.1,2.1
	c-0.3,2.5-0.5,4.4-0.7,6.4c-0.6,1.7-3.7,2.2-2.1,5.2c-1.2,1-2.4,2.1-3.7,3.2c0.7,0.5,1.2,0.9,1.8,1.4
	C524.2,485.6,522.7,486.8,521.1,488.1z M626.2,406.9c-0.2,0-0.5,0-0.7,0c-0.4,1.5-0.8,3.1-1.4,4.5c-0.8,1.8-0.8,3.6-0.1,5.4
	c0.5,1.5,1.2,3.1,1.7,4.6c1.7,4.5,5.4,6.6,9.9,6.8c9.7,0.6,14.5-3.3,15.1-12.2c0.1-1.7,0.3-3.5,0.1-5.2c-0.1-0.7-1.1-1.6-1.8-1.9
	c-1.1-0.4-1.8,0.6-2.2,1.5c-0.6,1.4-0.9,3-1.4,4.4c-1,2.9-2.7,4.2-5.8,4.2c-1.2,0-2.4-0.3-3.5-0.4c0,0.1-0.1,0.3-0.1,0.4
	c1.3,0.5,2.6,0.9,4.1,1.5c-6.2,2.1-11.1-0.7-12.1-6.7c-0.2-1.1-0.3-2.3-0.6-3.4C627.1,409.1,626.6,408,626.2,406.9z M656.3,412
	c-0.4,1.3-0.6,2.3-0.9,3.3c-1.2,3.2-2.2,6.4-3.6,9.5c-0.9,2.2-2.7,3.5-5.2,3.5c-1.8,0-3.2,0.7-4.2,2.1c-1.2,1.6-2.9,2.2-4.8,2
	c-1.1-0.1-2.2-0.1-3.1-0.4c-2.9-0.9-5.8-2-8.7-3c-1.4-0.5-2.6-1.4-4.6-1.1c2.8,2.5,5.2,4.7,7.7,6.8c4.5,3.7,9.4,4.1,14.6,1.8
	c2.1-0.9,4-1.6,6.2-0.8c0.7-1.5,1.3-2.8,1.9-4.1c0.9,1,1.7,1.8,2.6,2.7c2.6-5.7,3.9-11.2,4.2-16.9
	C658.2,415.4,658.1,413.5,656.3,412z M434,434.7c-0.1,1-0.2,2.1-0.4,3.1c-0.7,3.6-2.9,5.3-6.6,5c-5.7-0.4-9.1-3.6-10.1-9.2
	c-0.2-1-0.4-2.1-0.9-3c-0.4-0.8-0.9-1.5-1.6-2c-1.9-1.3-3.8-0.4-3.9,1.9c-0.2,4.3,0.8,8.4,3.2,12.1c1.2,1.8,2.9,2.8,4.9,3.5
	c3.3,1.1,6.7,1.2,10,0.6c3.3-0.5,6-2.2,7.7-5.2c0.7-1.2,0.9-2.7,0.9-4.1C437.1,435.7,436.2,435,434,434.7z M513.8,549.9
	c0.6-0.6,0.9-0.7,1-0.9c5.7-9.1,13.5-15.5,23.3-19.7c3.5-1.5,4.4-3.2,3.9-7.1c-1.1-8.8-2.2-17.6-3.3-26.4c-0.4-2.9-0.8-5.8-1.3-8.6
	c-2.8,1.8-5.2,3.4-7.9,5.2c6.7,1.5,8.9,6.4,9.4,12.2c0.4,4.4,0.4,8.9,0.2,13.3c-0.4,6-3.2,10.6-8.9,13.2c-1.4,0.6-2.7,1.4-4.1,2.2
	C520,537.1,516,542.5,513.8,549.9z M422.6,302.5c-2.3-1.1-4.6-1.4-7.1-1.4c-1.3,0-2.2,0.3-2.9,1.4c-1.6,2.6-3.3,5.2-4.8,7.9
	c-2.5,4.5-4.9,9.2-7.4,13.7c-0.2,0.4-0.3,0.8-0.5,1.2c0.7-0.1,1.2-0.5,1.6-0.8c4.5-3.8,9-7.6,13.5-11.4c1.7-1.4,3.4-2.8,4.9-4.4
	C421.6,307.1,422.8,305.1,422.6,302.5z M549.4,447c-4.1,1.2-7.1,3.3-8.4,7.4c-1.2,3.7-1.2,7.4-0.5,11.2c0.3,1.2,1.2,2.4,2,3.4
	c1.2,1.4,1.8,3.3,3.7,4.1c0.2,0.1,0.3,0.6,0.3,0.8c-1,2.5,0.9,2.9,2.2,3.5c0.3,1.6,0.5,3,0.7,4.4c2.5,0.2,4.7-0.2,6.8-1.4
	c-1.6-1.7-3.1-3.2-4.5-4.9c-3.2-3.8-5.4-8-6.1-12.9C545,456.9,546,451.7,549.4,447z M514,459.8c-1.9,1.5-4.6,2-5.4,4.6
	c-0.7,2.2-2.5,3-4.7,3.2c-2,0.2-4,0.4-6,0.7c-1.2,0.2-2.5,0.4-3.6,0.8c-0.5,0.2-1.1,1-1.1,1.5c0,0.5,0.6,1.3,1.1,1.5
	c1,0.4,2,0.6,3.1,0.7c7.3,0.7,13.9-1.6,20.5-4.1c0.8-0.3,1.5-1.2,1.8-2c0.7-2.4-0.3-4.3-2.5-5.5C516.1,460.8,515.1,460.4,514,459.8z
	 M569.4,530c-1-0.7-1.9-1.4-2.8-2c-3.4-2.5-6.9-4.9-10.3-7.5c-3.2-2.5-5-5.8-5.5-9.8c-0.4-3.8-0.9-7.7-1.6-11.4
	c-0.8-4.2-1.3-8.4,2-12.3c-1.3,0.2-2.1,0.3-3,0.4c-2.7,0.5-3.4,1.2-2.9,3.9c1.7,9.3,3.5,18.6,5.3,27.8c0.5,2.7,2,4.6,4.5,5.6
	c4.6,1.9,9.3,3.7,13.9,5.5C569,530.3,569.1,530.2,569.4,530z M566,458.4c1.1-2,0.2-3.5-1.1-4.7c-1.7-1.6-3.3-3.3-3.8-6.2
	c-1.3,1.8-2.5,3.1-3.4,4.6c-1,1.7-0.8,2.4,0.8,3.7c0.8,0.6,1.6,1.2,2.5,1.9c-0.5,0.1-0.8,0.2-1.1,0.3c-1,0.3-1.9,0.6-2,1.8
	c0,1.2,0.8,1.9,1.8,2.4c0.4,0.2,0.9,0.3,1.4,0.4c2.6,0.5,5.3,1.1,7.9,1.5c3.5,0.5,6.9,0.1,10.1-1.5c1.1-0.6,2.1-1.4,3.1-2.1
	C576.8,460,571.3,462.1,566,458.4z M625.9,294.5c0.8-2.9,0-5-1.5-7c-1.8-2.4-4.3-4.1-7-5.5c-1.4-0.7-3-1.3-3.9-2.3
	c-2.3-2.5-5-1.6-7.5-1.4c-2.1,0.2-2.8,2.3-1.3,3.9c0.8,0.9,2,1.4,3.1,2c3,1.5,6.1,2.8,9,4.5C619.8,290.3,622.6,292.4,625.9,294.5z
	 M628.9,288.4c1.8-0.1,2-1.5,2.1-2.7c0.1-1.6-0.1-3.3,0.1-4.9c0.2-2.6,1.1-3.2,3.6-2.5c1.5,0.4,3,0.9,4.5,1.2c1.2,0.2,2-0.4,2.5-1.5
	c0.5-1.1,0.4-2.2-0.6-2.8c-2.6-1.8-5.4-3.4-8.7-3.4c-5.4,0-8.5,5.2-6,9.8c0.6,1.1,1.3,2.1,1.8,3.3
	C628.5,285.9,628.6,287.1,628.9,288.4z M501,564.8c-9.7,14.7-14.6,31.2-19,47.9c0.5-0.4,0.9-0.8,1.1-1.3c1.8-4,3.7-7.8,5.2-11.9
	c4.1-11.1,7.2-22.6,12.4-33.4C500.9,565.7,500.9,565.3,501,564.8z M615.9,594.4c0.2,0,0.4,0,0.6-0.1c-0.3-1.9-0.5-3.8-0.9-5.7
	c-1.6-7.8-4.4-15.2-7.2-22.6c-2.5-6.7-6.6-12.4-11.9-17.2c-0.9-0.8-1.9-1.5-2.8-2.2c-0.2,0.1-0.3,0.3-0.5,0.4
	C605.3,560.7,610.6,577.5,615.9,594.4z M393.1,315.3C393.1,315.3,393.1,315.3,393.1,315.3c0-0.6,0-1.2,0-1.7c-0.1-2.6-0.4-3-3.1-3.7
	c-0.6-0.2-1.3-0.4-2-0.4c-2.7-0.3-3.8,0.4-4.5,3.1c-0.2,0.7-0.6,1.5-0.6,2.2c0,0.8-0.1,1.9,0.4,2.4c1.3,1.3,2.8,2.8,4.4,3.6
	c3,1.4,5.3-0.3,5.4-3.6C393.2,316.4,393.1,315.9,393.1,315.3z M637.3,406.1c-2.8-0.1-4.6,1.3-4.6,3.5c-0.1,3.3,1.8,6.1,4,6
	c2.9,0,5.3-2.2,5.4-4.9C642,408,640.1,406.2,637.3,406.1z M614.8,399.2c0,1.5-0.2,2.6,0,3.7c1,3.7,1,7.4,1.2,11.1
	c0.1,3.5,2.4,7.8,4.6,9.8c-0.2-1.2-0.6-2.6-0.6-4c0-1.2-0.2-2.1-1.2-2.8c-1.3-1.1-1.6-2.3-1.4-4.1c0.3-3.4,0.4-6.9,0.4-10.4
	C617.8,401,617.4,399.5,614.8,399.2z M427.6,425.7c-1,0.9-1.6,1.5-2.2,2.1c-0.8-0.6-1.4-1.3-2.3-1.7c-1.2-0.6-2-0.1-2.2,1.2
	c-0.4,2.5,1.5,5.2,3.9,5.4c0.7,0.1,1.8-0.2,2-0.7C427.8,430.2,428.8,428.3,427.6,425.7z M437.5,431.4c-0.3-1-0.3-1.7-0.6-2.3
	c-0.4-1-2.4-1.7-3.2-1.2c-1.1,0.7-0.7,1.6-0.3,2.5c0.2,0.4,0.2,1,0.5,1.3c0.5,0.6,1.4,1.5,1.8,1.3
	C436.5,432.8,437,431.9,437.5,431.4z M685,455.7c-2.8,2.9-3.1,5.1-0.9,8.5C684.4,461.2,684.7,458.6,685,455.7z M898.6,794.3
	c-2-4-4.5-7.6-7.7-10.7c-3.6-3.4-7.7-4.5-12.5-3.4c-0.9,0.2-1.9,0.4-2.8,0.7c-10.2,3.6-18.1,10.1-24.4,18.7c-0.8,1.1-1.4,2.3-2,3.5
	c-2.9,5.4,1.3,11.6,5.6,12.9c3.7,1.2,7.3,1.8,11.1,1.2c2.9-0.4,5.6,0,8,1.6c1.1,0.7,2.2,1.2,3.2,1.9c4,2.5,8.2,4.7,12.9,5.8
	c1.1,0.3,2.3,0.6,3.4,0.7c6.1,0.3,11.6-2,11.3-10.5C904.4,808.8,902.1,801.4,898.6,794.3z M142,800.8c2.5-0.5,5.2-0.9,7.5-2.1
	c5.1-2.5,6.5-8.9,3-14.2c-6.1-9.2-14.2-16-24.6-19.9c-8.2-3.1-13.1-1.7-18.7,5.1c-6,7.3-9.3,16-10.8,25.2c-0.5,2.8-0.4,5.8-0.1,8.6
	c0.3,3.4,2.6,5.5,5.8,6.5c2.5,0.8,4.9,0.7,7.4,0.2c5.3-1.1,10-3.4,14.5-6.4c3.6-2.4,7.4-4.1,11.5-3.1
	C139.3,800.8,140.7,801,142,800.8z M839.6,401.2c-8.5,10.4-15,22-19.9,34.5c-3.5,8.9-5,18.2-4.8,27.8c0,1.9,0.6,3.4,2.7,4.1
	c7.9-12.9,13.2-27.1,19.3-41c-3,11.9-6,23.9-10.3,35.4c6.2-9.1,12.4-18,20-26c0.5-0.6,0.8-1.5,1-2.3c1.7-9.2,1.4-18.5-0.4-27.7
	c-0.6-3.1-1-6.3-2.9-9.8C842.4,398.2,840.9,399.6,839.6,401.2z M817.2,427.4c0.6-0.8,0.8-1.1,1-1.4c4.3-9.6,9.7-18.5,16-26.8
	c0.8-1.1,1-2.2,1-3.5c0.2-6.8-0.7-13.5-2-20.1c-0.9-4.4-1.8-8.9-3.8-13c-0.4-0.9-1.1-1.7-1.7-2.6c-0.7,0.6-1.1,0.8-1.4,1.2
	c-0.9,1.2-1.9,2.5-2.7,3.8c-8.8,14.4-15.6,29.5-17.8,46.4c-0.8,6.2-1.1,12.3,0.2,18.4c0.4,2,1.3,3,3.4,3.6c5.2-14.1,10.4-28,14-42.6
	C822.8,403.1,819.6,414.9,817.2,427.4z M787.9,360c0.4-0.9,0.6-1.8,0.8-2.7c1.9-8.9,4.7-17.5,8.4-25.8c1-2.3,1.2-4.4,0.7-6.7
	c-2.4-10.1-6.4-19.4-11.8-28.2c-0.8-1.3-1.9-2.3-3.2-3.9c-0.9,1.8-1.7,3-2.1,4.3c-1.5,4.7-3.1,9.3-4.4,14.1c-3,11-4.3,22.2-3.7,33.6
	c0.4,7.5,1.6,14.8,4.8,21.7c0.8,1.7,1.8,2.5,3.9,2.5c2.4-15.5,3.8-31,4.3-46.6C787.4,334.7,787.1,347.3,787.9,360z M798.9,674.2
	c9.8-3.5,19.7-6.2,30-7.6c1-0.1,2.1-0.7,2.8-1.3c8.3-8,15-17.2,19.6-27.8c0.4-0.9,0.6-2,1-3.1c-1.7,0-3.1-0.2-4.3,0
	c-16.5,3.6-32,9.5-45.7,19.5c-5.7,4.2-10.9,9-14.9,14.9c-1,1.5-1.2,2.9,0,4.6c2.8-1.2,5.5-2.4,8.2-3.6c2.8-1.3,5.6-2.6,8.4-4
	c2.7-1.3,5.3-2.7,8-4.1c2.7-1.5,5.4-2.9,8.1-4.5c2.5-1.4,4.9-2.9,7.4-4.3c-9.3,8.1-19.4,15-29.7,21.8
	C798,674.5,798.4,674.4,798.9,674.2z M859.4,477.8c-12.7,9.9-23.3,21.7-31.2,35.8c-3.5,6.3-6,12.9-7,20.1c-0.3,1.9,0.2,3.1,1.9,4.2
	c5.2-5.5,9.7-11.5,14.2-17.5c4.5-6,8.9-12.1,13.3-18.2c-5,10.8-11.2,21-17,31.4c0.9-0.5,1.6-1.1,2.2-1.8
	c6.4-6.5,13.3-12.3,20.9-17.4c1.6-1.1,2.7-2.4,3.3-4.2c3.9-10.6,5.3-21.5,5.2-32.7c0-0.9-0.3-1.8-0.6-3.3
	C862.7,475.6,860.9,476.6,859.4,477.8z M857.3,595.8c-4.9,1.9-9.8,3.7-14.5,5.9c-11.7,5.4-22.4,12.2-31.4,21.4
	c-4,4.1-7.5,8.5-10.2,13.7c-0.9,1.7-0.8,3,0.7,4.6c6.4-4,12.7-7.8,18.9-11.9c6.1-4.1,12.1-8.4,18.1-12.7c-7.9,8.6-16.8,16-25.7,23.6
	c0.5,0.1,0.9,0.1,1.2,0c9-4.5,18.4-7.9,28.1-10.6c0.9-0.3,1.9-0.9,2.6-1.7c2-2.4,3.9-4.8,5.6-7.4c4.6-6.9,8.4-14.3,10.6-22.4
	c0.3-1,0.3-2,0.6-3.5C860.1,595.2,858.6,595.3,857.3,595.8z M830.8,570.4c8.2-6.7,16.9-12.6,26.2-17.5c0.9-0.5,1.8-1.5,2.2-2.5
	c2.1-5.1,4.3-10.1,6-15.4c1.8-5.6,2.9-11.4,3-17.4c0-0.9-0.2-1.8-0.3-3.2c-2.2,1.1-3.9,1.9-5.5,2.9c-6.5,3.9-12.4,8.6-18,13.6
	c-7.9,7-14.9,14.9-20.2,24.1c-2.5,4.4-4.4,9-5.8,13.8c-0.5,1.9,0,3.1,1.5,4.2c11.3-10.2,21.6-21.1,31.4-32.6
	c-6.2,10.7-13.7,20.5-21.2,30.4C830.2,570.8,830.6,570.6,830.8,570.4z M804.9,392.1c3.3-9.8,7.7-19.1,12.7-28.2
	c0.6-1,0.9-2.4,0.8-3.5c-0.3-3.3-0.6-6.5-1.3-9.8c-1.5-7.6-4-14.9-7.6-21.8c-0.6-1.2-1.5-2.3-2.7-4c-0.5,0.9-0.6,1.2-0.8,1.6
	c-0.6,1-1.2,2-1.8,3c-3.8,7.3-6.6,15-8.8,22.9c-2.7,9.6-4.8,19.3-4.2,29.4c0.3,5.2,0.6,10.4,2.1,15.5c0.6,1.8,1.4,3,3.5,3.1
	c4.8-14.9,7.3-30.3,9.6-45.7c0.6,5.5-0.7,24.6-2.4,39.1C804.6,392.8,804.8,392.5,804.9,392.1z M852.6,438c-3.7,4-7.5,8.1-11,12.3
	c-8.7,10.4-15.5,21.9-19.4,35c-1.3,4.4-2.2,8.8-2.4,13.4c-0.1,1.8,0.4,3.2,2.6,4c4-6.2,8.2-12.3,12-18.7c3.8-6.4,7.3-12.9,10.9-19.4
	c-3.2,11.6-8.5,22.2-13.5,33.1c0.5-0.1,0.7-0.3,1-0.6c6.3-8.2,13.5-15.4,21.3-22c1.1-1,1.6-2.1,1.8-3.5c0.8-4.7,1.7-9.3,2.2-14
	c0.6-6.1,0.8-12.2-0.4-18.2c-0.3-1.4-0.7-2.7-1.2-4.6C855,436.1,853.6,436.9,852.6,438z M833.6,671.8c-5.4,0.8-10.9,1.5-16.3,2.6
	c-12.5,2.6-24.3,6.9-35.1,13.9c-4.6,3-8.9,6.5-12.6,10.7c-1.2,1.4-1.6,2.8-0.8,4.7c14.6-4.2,28.7-9.8,42.7-15.8
	c-3.4,2.3-6.9,4.4-10.5,6.4c-3.6,2-7.3,4-11,5.9c-3.6,1.9-7.2,3.6-10.9,5.4c10.7-2.2,21.4-3.5,32.3-4.1c0.9,0,1.9-0.5,2.6-1.1
	c8.9-6.7,16.3-14.8,21.9-24.4c0.7-1.1,1.1-2.4,1.9-4.3C836.1,671.7,834.8,671.6,833.6,671.8z M862.4,556.5
	c-15,7.1-28.5,16.3-39.5,28.9c-4.6,5.2-8.5,11-11.1,17.6c-0.7,1.8-0.7,3.3,1,4.7c12.7-9,24.4-19.1,35.7-29.8
	c-7.7,10-16.2,19.3-25.1,28.3c0.8-0.2,1.4-0.5,2-0.9c8.2-5.2,16.8-9.6,25.8-13.2c1.6-0.6,2.8-1.6,3.7-3c5.8-9.1,10-18.7,12.1-29.3
	c0.3-1.4,0.3-2.8,0.5-5C865.3,555.5,863.8,555.9,862.4,556.5z M327.1,260.2c-2.3,2.1-4.7,4-7.1,6c-2.4,2-4.7,4-7,6.1
	c-2.3,2-4.6,3.9-7.1,6.3c1.6,0.2,2.5,0.2,3.5,0.4c3.6,0.4,7.3,0.6,10.9,1.4c3,0.7,5.3-0.3,7.4-2.1c1.6-1.4,3-3,4.6-4.5
	c7.2-7.2,12.6-15.6,17.4-24.4c0.6-1,0.8-2.2,1.3-3.7c-2-0.3-3.5-0.6-5-0.7c-5-0.4-10,0.1-15,1.2c-7.8,1.7-15.3,3.8-22.2,8.1
	c-2.3,1.4-3.6,3-3.4,5.8c0.1,0.8-0.2,1.5-0.3,2.3c-0.7,4-1.4,7.9-2.1,12.5C311.5,269.9,318.8,264.1,327.1,260.2z M245.5,415
	c-5.1,0.5-10.2,0.8-15.2,1.8c-11.1,2.1-21.1,6.6-29.5,14.5c-5,4.8-9.4,9.9-11.8,16.6c-0.6,1.8-0.8,3.3,1,5
	c10.9-8.9,22.8-16.4,35.2-23.3c-4.1,3.7-8.5,7.2-12.8,10.7c-4.3,3.5-8.5,7-12.2,11.2c2.3-1.2,4.6-2.5,6.8-3.7
	c6.9-3.6,14.3-5.6,21.9-7.2c1-0.2,2.1-0.6,2.8-1.3c5.9-6,11.5-12.3,16-19.4c0.7-1.2,1.2-2.5,2.1-4.4
	C247.9,415.2,246.7,414.9,245.5,415z M224.4,505.9c-2.3,0.8-4.6,1.6-6.8,2.6c-11.5,5.4-21.6,12.5-28.7,23.3
	c-4.9,7.4-8.1,15.4-8.3,24.4c0,1.9,0.6,3.1,2.4,3.9c2.1-3,4-6,6.1-8.9c2-2.8,4-5.7,6.1-8.4c2.2-2.9,4.4-5.7,6.6-8.4
	c2.2-2.7,4.5-5.3,6.8-7.9c-2.4,4.9-5.4,9.4-8.1,14c-2.8,4.6-5.6,9.1-8,14.5c0.7-0.4,0.9-0.5,1-0.6c6.4-7.7,14.1-13.8,22.7-18.7
	c0.8-0.4,1.5-1.3,1.9-2.1c3.7-7.3,6.7-14.8,8.7-22.7c0.4-1.6,0.6-3.4,0.9-5.7C226.2,505.5,225.3,505.6,224.4,505.9z M222.5,537.8
	c-10.8,5.4-20.1,12.7-27.1,22.6c-6.6,9.3-10.2,19.7-9.5,31.3c0.1,1.9,0.7,3.3,2.9,4c6.4-12.6,13.4-24.8,21.8-36.1
	c-4.5,10-9.5,19.7-13,30.1c0.4-0.2,0.7-0.5,0.9-0.8c5.4-8.4,12.3-15.3,20.4-21.1c0.8-0.6,1.5-1.5,1.8-2.5c3-8,5-16.2,6.1-24.7
	c0.2-1.3,0-2.6,0-4.6C225,536.8,223.7,537.2,222.5,537.8z M232.7,599.3c-11.7,9.5-20.5,21-24.4,35.7c-2.2,8.4-2.5,16.8,0,25.2
	c0.5,1.9,1.3,3.4,3.8,3.5c0.9-3.5,1.8-7.1,2.8-10.6c1-3.4,2-6.9,3.1-10.3c1.1-3.5,2.3-7,3.6-10.4c1.2-3.3,2.6-6.6,3.9-9.9
	c-0.9,5.7-2.3,11.2-3.4,16.8c-1.1,5.5-2,11.1-3,16.6c0.6-0.1,0.8-0.3,0.9-0.6c3.3-9.6,8.7-18,15.4-25.7c0.5-0.6,1-1.5,1.1-2.3
	c1.2-8.6,1.6-17.1,0.5-25.7c-0.2-1.3-0.6-2.6-1-4.4C234.4,598.2,233.5,598.6,232.7,599.3z M230.6,445.1c-13.7,2.4-25.8,8-35.9,17.6
	c-6.2,5.9-10.2,13-12.5,21.2c-0.5,1.8-0.1,3.1,1.5,4.2c10.3-9.5,20.4-19.2,32.3-26.6c-8,7.5-15.2,15.5-22,24c0.4,0,0.6-0.1,0.9-0.3
	c8-6.1,16.7-10.7,26.4-13.6c1.1-0.3,2.2-1.2,3-2.1c5.6-6.5,9.9-13.8,13.6-21.5c0.5-1,0.7-2.1,1.1-3.3
	C235.9,444.1,233.3,444.6,230.6,445.1z M213.2,601.5c-1.3,3.7-2.5,7.5-3.7,11.3c-1.1,3.6-2.1,7.2-3.1,10.8c0.8-0.5,1.2-1.2,1.6-1.9
	c3.7-7.2,8.3-13.8,14.3-19.2c3.5-3.2,5.4-6.7,6.1-11.3c1-6.8,2.1-13.5,1.9-20.4c0-1.1-0.3-2.2-0.5-3.6c-1.4,0.6-2.4,1-3.2,1.5
	c-2.1,1.3-4.3,2.7-6.2,4.2c-10.3,8.1-18.5,17.8-22.8,30.4c-2.7,7.7-3.5,15.6-2.1,23.7c0.3,1.9,1.2,3.2,3.4,3.4
	c5.1-13.7,11-27,18.5-39.6C215.8,594.3,214.4,597.9,213.2,601.5z M211.7,492.6c-7.1,9-13.9,18.1-20.4,27.5c0.4,0,0.7-0.1,0.8-0.2
	c7.3-7,15.6-12.3,24.8-16.3c1-0.4,1.9-1.3,2.5-2.2c2.4-4.1,4.9-8.1,7-12.3c1.7-3.4,2.9-7.1,4.3-10.7c0.4-1,0.4-2.2,0.6-3.7
	c-1.7,0.2-3,0.2-4.3,0.5c-9.5,2.2-18.2,6.4-26.2,12c-9.5,6.6-16,15.6-19.9,26.4c-0.7,2.1-1,4.3-1.6,6.5c-0.5,1.8,0.1,3.2,1.9,4.2
	C190.9,513,200.8,502.3,211.7,492.6z M238.3,653.6c-1.6,11.1-2.7,22.3-2.8,33.5c0.3-0.3,0.4-0.6,0.5-1c2.5-9.8,6.6-18.9,12.6-27.2
	c0.5-0.7,0.7-1.6,0.7-2.4c0.2-8.8-0.5-17.6-2.6-26.2c-0.3-1.1-0.8-2.1-1.2-3.1c-0.6,0.2-0.9,0.2-1.1,0.3c-0.7,0.5-1.4,1-2,1.6
	c-12,12.3-20,26.5-20.7,44c-0.3,6.7,0.8,13.3,3.4,19.5c0.8,1.8,1.8,2.8,3.9,2.7c1.2-7.1,2.3-14.2,3.7-21.1c1.4-7,3.2-13.9,4.8-20.8
	C237.8,653.5,238.1,653.5,238.3,653.6z M226.7,361.8c-0.1-2.1,0-4.2-0.4-6.3c-1-5.8-1.9-11.6-3.2-17.3c-1.7-7.5-4.2-14.9-7.5-21.9
	c-0.6-1.3-1.1-2.9-2.7-3.7c-0.3,0.3-0.7,0.5-0.9,0.8c-0.6,0.8-1.1,1.6-1.6,2.4c-5.5,9.6-8.9,19.9-10.3,30.8
	c-0.1,1.2,0.1,2.5,0.6,3.6c3.2,7.7,6.5,15.3,9.7,22.9c0.3,0.6,0.5,1.2,1.2,2.4c0.4-1.5,0.9-2.3,0.9-3.2c-0.1-6.7-0.4-13.3-0.5-20
	c-0.1-3.4,0.1-6.8,0.1-10.2c1.4,9,2.3,17.9,3.8,27.1C219.6,366.7,223.1,364.3,226.7,361.8z M171,385.9c-3.1,10.8-4.5,21.7-3,32.9
	c0.1,1.1,0.6,2.3,1.3,3.1c5.2,6.1,9.8,12.7,14,19.5c0.4,0.7,1,1.4,1.5,2.2c1.2-1,0.9-1.9,0.6-3c-1-3.5-1.9-7.1-2.8-10.7
	c-1.5-6.1-2.8-12.2-4.2-18.3c3.6,8.3,6.3,17,10.1,25.4c2.5-2.8,4.7-5.4,7-7.8c1.2-1.3,1.8-2.3,1.1-4c-1.7-4.2-3-8.6-4.8-12.7
	c-4-9.7-9.2-18.7-15.6-27c-0.9-1.2-2-2.2-3.4-3.7C172,383.5,171.3,384.7,171,385.9z M216.5,673.7c0-0.6-0.6-1.3-1.1-1.8
	c-0.5-0.5-1.1-0.7-1.7-1c-12.6-6.8-26.1-10.8-40.2-13.3c-1.9-0.3-4-0.2-6.1-0.3c0,0.8,0,1.2,0.1,1.5c0.4,1,0.8,2,1.3,2.9
	c5.3,9.8,12.3,18.2,20.9,25.3c0.8,0.6,1.8,1,2.8,1.2c6.4,1,12.8,1.8,19.2,2.8c2.4,0.4,4.8,1,7.3,1.5c0.4-1.9-1-2.3-2-2.9
	c-7.3-4.4-14.5-8.8-21.8-13.2c-0.6-0.3-1-0.8-1.6-1.3c0.1-0.1,0.2-0.2,0.2-0.3c7.7,3.5,15.3,7.1,23.2,10.8
	C216.9,681.2,216.8,677.4,216.5,673.7z M162,564.1c6.1,6.2,12.2,12.4,18.9,18.1c1-3.7,1.8-7,2.9-10.1c0.6-1.7,0.3-2.8-0.9-4.1
	c-5.4-6-11.4-11.3-17.9-16.1c-5.8-4.2-11.7-8.2-18.2-11.2c-1.2-0.5-2.3-1.4-3.9-0.8c0,0.9-0.1,1.8,0,2.6
	c1.4,11.7,5.6,22.4,11.7,32.4c0.5,0.8,1.5,1.5,2.4,1.9c7.3,3.3,14.3,7.2,21.1,11.5c0.7,0.5,1.5,0.9,2.2,1.3c1-1.6-0.2-2.4-1-3.3
	c-4.3-5.1-8.6-10.2-12.9-15.3c-1.7-2.1-3.3-4.3-4.9-6.4C161.7,564.4,161.9,564.2,162,564.1z M157.6,422.9
	c-2.7,11.6-1.7,23.2,0.5,34.8c0.2,0.8,0.9,1.7,1.5,2.3c6.1,5.7,11.7,11.8,16.9,18.3c0.4,0.5,0.9,0.8,1.4,1.3
	c0.5-2.1,0.5-2.1-0.2-3.8c-3.3-7.4-6.2-15-8.5-22.8c-0.3-1-0.5-1.9-0.8-2.9c4.3,7.4,7.4,15.4,12.3,22.7c1-1.7,1.8-3.2,2.7-4.5
	c0.9-1.4,1.7-2.9,2.9-4c1.6-1.6,1.5-3,0.7-4.9c-6-14-14.8-26.2-25.2-37.3c-0.8-0.8-1.7-1.5-3.1-2.5
	C158.3,421.1,157.8,422,157.6,422.9z M266.4,253.9c-0.9,0.8-1.7,1.5-2.5,2.4c-7.7,8-12.7,17.6-16.6,27.9c-0.4,1.1-0.3,2.5-0.1,3.6
	c1.9,8.1,3.6,16.2,4.4,24.5c0.1,0.5,0.3,1,0.5,1.5c1.4-0.5,1.5-1.5,1.7-2.6c0.9-5.2,1.8-10.4,2.9-15.6c0.9-4.1,2-8.2,3-12.3
	c-0.2,8.7-1.7,17.3-1.8,26.1c3.5-1.5,6.7-2.9,9.9-4c1.6-0.6,2.4-1.4,2.5-3c0.4-5,1.2-10,1.3-15c0.2-10.2-0.3-20.5-2.7-30.5
	c-0.3-1.2-0.8-2.3-1.2-3.5C267.1,253.6,266.7,253.7,266.4,253.9z M174.6,549.5c-4.6-7.1-9.2-14.3-13.9-21.4
	c-0.5-0.8-0.9-1.7-1.4-2.5c5.8,6.8,11.2,13.8,17.4,20.2c1.4-3.5,2.5-6.7,3.9-9.7c0.8-1.8,0.6-3-0.4-4.5c-3.7-5.4-8.1-10.1-12.7-14.7
	c-6-6-12.4-11.4-19.5-16c-1.2-0.8-2.5-1.8-4.4-1.6c-0.1,1.2-0.2,2.2-0.2,3.2c0.2,11.5,2.9,22.3,7.6,32.8c0.6,1.2,1.5,1.9,2.6,2.6
	c6.9,4,13.3,8.5,19.5,13.6c0.6,0.5,1.4,1,2.1,1.5C176.2,551.5,175.2,550.5,174.6,549.5z M155.8,623.5c4.2,10.2,10.1,19.3,17.7,27.3
	c0.8,0.8,2,1.5,3.2,1.7c8.2,1.6,16.1,4,23.9,6.8c0.6,0.2,1.2,0.3,1.8,0.4c0.1-0.2,0.2-0.3,0.4-0.5c-0.6-0.7-1.2-1.6-1.9-2.2
	c-4.4-3.4-9-6.7-13.4-10.1c-3.1-2.4-6-4.9-9-7.4c0.1-0.2,0.3-0.4,0.4-0.6c7.2,4.8,14.6,9.4,22.7,13.8c0-4.7,0-8.8,0-13.2
	c-0.1-0.1-0.4-0.4-0.8-0.7c-12.8-9.3-27.1-15.4-42.4-19.3c-1.1-0.3-2.3-0.2-3.9-0.3C155,620.9,155.3,622.2,155.8,623.5z M188,622.1
	c-6.4-6.3-12.9-12.5-19.3-18.8c-0.5-0.5-0.9-1.1-1.4-1.6c6.5,4.8,12.9,9.7,19.2,14.6c0.7,0.5,1.5,0.9,2.2,1.4c0.1,0,0.2,0,0.3,0
	c0.1,0,0.2-0.1,0.1,0c0.6-3.6,1-7,1.8-10.4c0.4-1.6,0.1-2.6-1.1-3.5c-4.1-3.2-8.1-6.6-12.4-9.5c-8.1-5.5-16.7-10-25.9-13.5
	c-1.5-0.6-3-1.4-4.7-0.8c-0.1,0.4-0.2,0.7-0.2,0.9c0,0.6,0.1,1.2,0.2,1.7c2.8,11.4,7.9,21.7,15.2,31c0.7,0.8,1.8,1.4,2.8,1.8
	c5.5,2.1,11,4.1,16.5,6.3c2.7,1.1,5.2,2.4,7.9,3.7C190.1,623.7,188.9,622.9,188,622.1z M234.7,311.5c-0.1,8.9-0.1,17.8,0.7,26.9
	c3.2-1.9,6-3.7,9.1-5.2c1.8-0.9,2.3-2,2.3-3.8c0.3-7.5,0.1-15.1-1.1-22.5c-1.2-7.3-2.8-14.6-5.2-21.7c-0.5-1.3-1.1-2.6-1.9-4.3
	c-1.3,1.3-2.4,2.2-3.1,3.2c-6.1,9.2-11.1,19-13.6,29.9c-0.3,1.4-0.1,2.6,0.3,3.9c2,6.1,4,12.3,5.9,18.5c0.7,2.2,1,4.5,1.6,6.7
	c1.5-0.3,1.6-1.3,1.7-2.4c0.3-4.5,0.6-9.1,1.1-13.6c0.5-5.3,1.1-10.5,1.6-15.8C234.3,311.4,234.5,311.4,234.7,311.5z M187.4,352.5
	c-3.2,9.5-5.3,19.2-5.6,29.2c0,1.5,0.4,2.8,1.3,4c4.6,6.6,8.5,13.6,11.9,20.9c0.3,0.7,0.7,1.3,1.4,2.5c0.4-1.3,0.7-1.9,0.7-2.6
	c0-0.9-0.2-1.7-0.3-2.6c-1-7.5-2.1-14.9-3.1-22.4c-0.1-0.9-0.1-1.7-0.2-2.6c0-0.8,0-1.5,0-2.3c2,8.8,4.1,17.4,7.1,26.5
	c2.6-2.7,4.6-5.2,7.1-7.2c1.7-1.4,2.2-2.8,1.8-5c-2.5-15-8.5-28.6-16-41.7c-0.6-1-1.5-1.9-2.8-3.5
	C189.4,348.4,188.1,350.3,187.4,352.5z M182.8,497.8c-0.9-1.6-1.8-3.2-2.7-4.8c-7.2-12.1-16.3-22.4-27.1-31.4
	c-1.2-1-2.3-2.1-4.2-2.2c-0.2,0.9-0.4,1.8-0.5,2.8c-0.1,1.6-0.2,3.3-0.2,4.9c0.1,9.6,0.9,19.1,4.1,28.2c0.5,1.5,1.3,2.7,2.6,3.7
	c6.5,4.7,12.5,10,18,15.8c0.5,0.5,1.1,1,1.7,1.5c1.1-1.4,0.3-2.5-0.2-3.6c-3.6-7-7.3-14.1-10.9-21.1c-0.5-1-0.9-2.2-1.4-3.2
	c0.1-0.1,0.3-0.1,0.4-0.2c4.7,7,9.4,14,14.2,21.3C178.9,505.3,180.8,501.6,182.8,497.8z M279.4,284.2c2.5-7.8,5-15.6,7.5-23.4
	c0.4-1.1,0.8-2.2,1.3-3.3c0.1,0,0.3,0.1,0.4,0.1c-1.7,8.6-3.4,17.1-5.2,26c3.7-1.2,6.8-2.4,10.1-3.1c2.1-0.4,2.8-1.5,3.3-3.3
	c3.8-13.6,4.7-27.6,3.8-41.6c-0.1-2.3-0.1-4.8-1.4-7c-0.5,0.1-0.8,0-1,0.2c-0.7,0.5-1.5,0.9-2.1,1.5c-8,7.4-14.9,15.7-19.9,25.4
	c-1,1.9-1.1,3.8-0.9,5.8c0.6,6.5,1.1,13.1,1.6,19.6c0.1,1.8,0,3.6,0,5.6C279,286.6,279.1,285.3,279.4,284.2z M783.9,548.6
	c-1,1.4-0.7,2.9-0.6,4.4c0.7,8.1,2.3,16,4.7,23.8c0.5,1.5,1.2,2.7,2.5,3.7c6.1,4.8,11.5,10.3,15.9,16.7c0.4,0.5,0.8,1,1.3,1.5
	c0.8-1.7,0.9-1.7,0.3-3.3c-2.9-7.1-5.8-14.1-8.7-21.1c-0.4-0.8-0.7-1.7-1.1-2.5c0.2-0.1,0.4-0.2,0.6-0.3c4.1,7,8.1,13.9,12.3,21.1
	c2.5-3.5,4.9-6.7,7.3-10.1C813.1,568.9,795,551.1,783.9,548.6z M781.8,488.1c0.4,2.1,0.8,4.2,1.4,6.2c2.3,7.1,5.9,13.6,9.5,20.1
	c0.5,0.8,1.5,1.5,2.4,1.9c6.9,3.4,13.2,7.6,19,12.6c0.6,0.5,1.3,1,2,1.5c1-1.5,0.1-2.4-0.6-3.3c-4.4-6.3-8.7-12.5-13.1-18.8
	c-0.3-0.5-0.6-1-0.9-1.5c0.2-0.1,0.3-0.2,0.5-0.4c5.2,5.7,10.4,11.4,15.7,17.2c1.8-4.1,3.4-7.8,5-11.4c-7-11.5-30.2-26-40.9-25.5
	C781.9,487.1,781.7,487.6,781.8,488.1z M744.7,670c-2.8,7-4.5,14.3-5.9,21.7c-0.5,2.7-0.1,5,1.1,7.5c3.1,6.4,5.1,13.1,6.4,20.1
	c0.1,0.7,0.3,1.4,0.5,2.3c2-0.8,1.8-2.4,1.8-3.7c0.4-7.7,0.8-15.4,1.2-23.1c0-0.8,0.1-1.7,0.1-2.5c0.2,0,0.4,0,0.6,0
	c0.7,8.3,1.3,16.6,2,25c3.5-1.8,6.7-3.5,10-5.1c0.9-0.5,1.2-1.2,1.2-2.1c-0.1-2.9-0.1-5.8-0.5-8.7c-1.7-12.3-6.4-23.4-13.8-33.3
	c-0.6-0.8-1.4-1.5-2.5-2.5C746,667.3,745.3,668.6,744.7,670z M776.3,459.7c3.5,7.8,7.4,15.3,12.7,22c0.9,1.2,1.9,2,3.4,2.5
	c7.2,2.4,13.8,6,20,10.3c0.7,0.5,1.4,0.9,2.1,1.4c1-1.4,0.1-2.3-0.7-3.1c-4.8-5.5-9.7-11-14.6-16.5c-0.7-0.8-1.5-1.6-2.3-2.4
	c0.1-0.2,0.3-0.3,0.4-0.5c3.1,2.5,6.2,5,9.3,7.5c3.1,2.6,6,5.3,9.1,8.1c1.3-4.2,2.5-8,3.7-11.8c-8.8-11.3-32.7-22.6-44.1-20.8
	C775.7,457.6,775.8,458.7,776.3,459.7z M813.7,561.4c-3.6-6.5-7.2-13-10.8-19.5c-0.4-0.8-0.9-1.6-1.3-2.4c0.2-0.1,0.3-0.2,0.5-0.3
	c2.4,3.1,4.8,6.1,7.1,9.2c2.4,3.2,4.7,6.6,7.2,10.1c2.2-3.8,4.3-7.4,6.3-10.9c-6.3-12.8-28.3-29.9-38.6-29.8
	c0.1,1.6,0.1,3.2,0.4,4.8c1.6,8.1,4.4,15.8,7.7,23.3c0.5,1.2,1.4,2,2.5,2.7c6.6,4.1,12.5,9,17.7,14.9c0.4,0.5,0.7,1.1,1.2,2
	C815,563.4,814.2,562.4,813.7,561.4z M767.4,663.6c1.6,8.4,3.3,16.7,5,25.3c3.5-2.4,6.8-4.7,10-7c0.8-13.1-11.5-38.1-21.5-43.7
	c-0.5,1.5-1.2,2.8-1.6,4.3c-2.2,8-3.1,16.1-3.5,24.3c-0.1,1.4,0.3,2.6,1.1,3.8c4.2,6.4,7.3,13.4,9.4,20.7c0.2,0.7,0.5,1.4,0.7,2.2
	c1.8-0.4,1.5-1.7,1.5-2.8c-0.3-6.3-0.6-12.5-0.9-18.8c-0.2-2.7-0.5-5.5-0.7-8.2C767,663.6,767.2,663.6,767.4,663.6z M791.7,603.4
	c3.3,7.5,6.7,15,10.1,22.7c2.9-3.2,5.7-6.2,8.3-9.1c-3.6-14.3-21-35.6-30.9-37.5c-0.1,0.9-0.3,1.8-0.4,2.8c-0.7,9,0.5,17.9,2.1,26.8
	c0.2,0.9,0.8,1.7,1.5,2.4c5.7,5.6,10.4,11.9,14.3,18.9c0.3,0.5,0.7,1,1.1,1.5c1.3-1.1,0.8-2.3,0.5-3.4c-1.7-6.1-3.5-12.3-5.3-18.4
	c-0.6-2.1-1.3-4.2-2-6.3C791.3,603.7,791.5,603.5,791.7,603.4z M808.9,459.4c-0.6-0.8-1.4-1.6-2.2-2.3c-5.1-4.5-10.3-9-15.5-13.6
	c-0.8-0.7-1.5-1.4-2.3-2.1c0.1-0.2,0.3-0.3,0.4-0.5c6.7,4.6,13.5,9.2,20.3,13.8c0.8-4,1.6-7.6,2.2-11.3c0.1-0.6-0.4-1.5-0.9-1.9
	c-2.3-1.8-4.5-3.7-6.9-5.2c-10.6-6.3-22.1-9.5-34.4-10c-1.1,0-2.2,0.2-3.8,0.3c1,2.1,1.6,3.8,2.5,5.3c4.1,6.8,9,13,14.3,18.9
	c0.7,0.8,1.9,1.4,2.9,1.6c8,2,15.7,4.6,22.9,8.8c0.3,0.2,0.7,0.3,1.6,0.6C809.5,460.8,809.4,460,808.9,459.4z M753.7,399.6
	c0.3,0.5,0.5,1,0.9,1.5c5,7.4,11.1,13.9,18,19.5c0.8,0.7,2,1.1,3.1,1.3c5.4,1.2,10.8,2.2,16.1,3.6c2.9,0.7,5.6,2,8.4,3
	c0.7-1.6-0.4-2.2-1.3-2.8c-6.5-4.7-13-9.3-19.6-14c-0.8-0.5-1.5-1-2.3-1.6c8,2.8,15.2,7.2,22.8,11.5c0.2-1.9,0.3-3.4,0.4-4.9
	c0.1-1.6,0.2-3.3,0.5-4.9c0.4-2.8,0.5-2.9-2-4.3c-12.6-7.5-26.2-10.6-40.8-9.9c-1.4,0.1-2.8,0.4-4.5,0.7
	C753.6,399.1,753.6,399.4,753.7,399.6z M798.1,649.5c-0.1-0.6-0.1-1.2-0.3-1.7c-3.5-14.8-11.6-26.8-22.9-36.7
	c-0.8-0.7-1.8-1.2-2.9-1.9c-0.4,0.7-0.6,1-0.7,1.3c-0.2,0.7-0.4,1.5-0.6,2.2c-1.6,8.5-1.4,17.1-0.9,25.7c0.1,1.4,0.7,2.5,1.6,3.6
	c4.9,6.1,8.9,12.8,11.9,20.1c0.2,0.5,0.5,0.9,0.8,1.5c1.7-1.4,1.1-3,0.8-4.4c-1.4-7.8-2.8-15.6-4.2-23.3c-0.1-0.4,0-0.7,0-1.1
	c3.4,7.5,5.4,15.5,7.9,23.6c3.3-2.9,6.3-5.4,9.3-8.1C798.1,650.1,798.2,649.8,798.1,649.5z M238.3,398.8c-2.2,1.6-4.6,3-7,4.4
	c-2.5,1.5-4.9,3.2-7.3,4.8c-2.3,1.6-4.6,3.1-6.9,4.8c-2.3,1.6-4.6,3.1-6.6,5.1c9.7-4.3,19.7-6.7,30.2-7.6c0.5,0,1-0.1,1.4-0.3
	c3.5-2.5,6.8-5.2,9.7-8.1c-3.8-5-7.4-9.7-11.1-14.5c-8.4,0.7-19.7,4.8-26.5,9.7c-6,4.4-11,9.6-14.7,16.1c-0.9,1.6-1.3,3,0.2,4.8
	C212.5,411.1,224.8,403.7,238.3,398.8z M741.7,377.9c1.2,1,2.1,1.7,2.9,2.4c4.7,3.8,9.3,7.5,14,11.3c1.3,1,2.7,1.4,4.3,1.3
	c7.9-0.1,15.6,0.9,23.1,3.3c0.5,0.2,1,0.1,1.5,0.1c0.3-1.8-1-2.2-1.9-2.7c-6.4-3.6-12.8-7.1-19.3-10.7c-0.8-0.4-1.6-0.9-2.4-1.4
	c7.7,1.9,14.9,5,22.6,8c-0.1-1.6-0.2-2.8-0.3-4c-0.1-1.9-0.4-3.9-0.3-5.8c0.1-2.1-0.7-3.1-2.5-4c-11.1-5.6-22.8-6.8-35.2-6
	C747.2,373.3,745.3,375.9,741.7,377.9z M723.9,238.9c-0.2,0.8-0.5,1.7-0.6,2.5c-1.5,9.3-1.5,18.7-1,28c0.1,1,0.4,2.1,1,2.9
	c3.1,4,7.3,6,12.6,7.1c-0.7-4.4-1.4-8.4-2.1-12.5c0.7,0.7,1,1.5,1.3,2.3c0.9,3.1,1.8,6.3,2.8,9.4c0.2,0.7,0.4,1.6,0.9,2.1
	c1.8,1.5,3.8,2.8,6,4.3c0.2-1,0.3-1.6,0.4-2.3c0.6-3.7,1-7.5,1.7-11.2c0.4-2.1,0.2-3.9-0.7-5.9c-4.6-9.9-11.1-18.5-18.8-26.3
	c-0.7-0.7-1.6-1.3-2.7-2.1C724.3,238.3,724,238.6,723.9,238.9z M137.1,731.2c-1-4.3-2.4-8.4-5.8-11.4c-4.2-3.7-9-3.5-12.8,0.7
	c-2.4,2.7-3.7,5.9-4.3,9.3c-1.3,7-0.4,13.5,4.1,19.2c4.6,5.8,13.4,5.8,17.1-2c1.5-3.3,2.4-6.7,2.5-10.4
	C137.6,734.9,137.5,733,137.1,731.2z M868.7,765.9c2.3,3.1,5.4,4.2,9.1,3.6c3.3-0.6,5.9-2.4,7.6-5.3c4.6-8.1,4.8-16.3,0.5-24.6
	c-0.9-1.6-2.4-3.1-3.8-4.3c-2.5-2.1-5.4-2.1-8.1-0.6c-1.6,0.9-3.2,2.2-4.4,3.7c-3.4,4.4-4.4,9.5-4.7,14.1
	C865,757.9,866,762.1,868.7,765.9z M767.5,329.9c0.7-4.4,1.3-8.7,2.1-13.1c0.9-4.4,1.5-8.8,3.1-12.9c2-5.2,1.2-9.8-0.9-14.7
	c-3.5-8-7.4-15.7-13.3-22.3c-1-1.1-1.8-2.5-3.7-2.9c-0.5,1.5-1.2,2.8-1.5,4.1c-1.2,6.4-2.1,12.7-3.3,19.1c-0.4,2.3,0.4,4,2.1,5.3
	c3.1,2.4,6.6,4.2,9.2,7.4c-0.1-2.2-0.3-4.4-0.4-6.5c1.7,6,3,12,4,18.1c1,6.1,1.5,12.3,2.3,18.5C767.3,329.9,767.4,329.9,767.5,329.9
	z M916.9,749.8c-1.2-7.3-7.3-10.4-13.8-6.7c-2.1,1.2-4.2,2.9-5.8,4.7c-4.6,5.3-7.5,11.3-6.9,18.5c0.6,6.7,3.9,9.4,10,8.9
	c1.1-0.1,2.3-0.5,3.3-1c8.5-4.4,12.5-11.6,13.4-20.9C917,752.1,917,750.9,916.9,749.8z M94,754.4c2.3,2,4.8,3.5,7.8,4.1
	c4.4,0.9,8.2-1.1,9.6-5.4c0.5-1.3,0.8-2.8,0.8-4.2c0.2-7-2.6-12.9-7.2-18.1c-2.4-2.7-5.2-4.9-8.9-5.6c-4.2-0.9-7.5,0.7-9.2,4.6
	c-0.9,2-1.2,4.2-1.7,6.3C85.5,743,88.7,749.8,94,754.4z M859.7,760.6c-5-5-11.5-4.5-15.1,1.6c-4.6,7.8-4.8,15.5,0.2,22.8
	c4.4,6.4,11.9,5.5,16,1.4c3.6-3.6,4.2-8.3,4.2-13C864.8,768.5,863.2,764.1,859.7,760.6z M156.9,744.2c-3.8-4.3-9-4.6-13.3-0.9
	c-6.5,5.6-7.9,16.6-4,23.9c3.7,6.9,12.7,7.9,17.4,2.1c2.8-3.5,4.3-7.5,4.4-12.6C161,752.6,160.2,747.9,156.9,744.2z M100.6,773.2
	c-0.4-1.7-0.9-3.4-1.6-4.9c-2.4-5.5-6.3-9.7-11.9-11.9c-3.7-1.5-7.5-2.1-10.9,0.8c-3.4,2.9-3.9,6.9-2.9,10.9
	c1.5,5.9,5,10.6,10.3,13.7c2.6,1.6,5.4,2.4,8.5,2.5C99.4,784.2,101.7,778.8,100.6,773.2z M918,772c-0.7,0.2-1.5,0.4-2.2,0.7
	c-5,1.9-8.6,5.5-11.2,10c-1.7,3-2.8,6.2-2.8,9.6c0,5,3.1,8.1,8,8.3c6.8,0.2,11.8-3.1,15.7-8.3c2.4-3.2,4.3-6.7,4.2-10.9
	C929.8,774.5,924.9,770.5,918,772z M319.6,243.4c4.6-1,9.2-2,13.8-3.1c1.3-0.3,2.6-0.7,3.8-1.3c11.1-5.8,22-12.1,33.6-16.9
	c4.8-2,9.6-4.1,14.4-6.1c2-0.8,2.7-2.2,2.2-3.8c-0.5-1.6-2.2-2.4-4.3-1.8c-0.7,0.2-1.5,0.5-2.2,0.8c-16.3,6.7-32.1,14.2-47.3,23.1
	c-4.8,2.8-9.5,5.9-14.2,8.9C319.4,243.3,319.5,243.4,319.6,243.4z M703.6,251.3c-5.4-3.7-10.8-7.5-16.3-11
	c-13.8-8.7-28.3-16.2-43-23.1c-1-0.4-1.9-0.9-2.9-1.2c-2-0.6-3.5,0.1-4.1,1.7c-0.6,1.6,0.1,3.1,2,3.9c14.1,6.4,27.8,13.3,41,21.5
	c1,0.6,2.1,0.9,3.2,1.3c4.3,1.7,8.6,3.4,12.9,5c2.3,0.9,4.6,1.7,7,2.6C703.4,251.8,703.5,251.5,703.6,251.3z M312.2,236.5
	c15-10,30.6-18.7,47-26.2c0.6-0.3,1.4-0.6,1.7-1.1c0.4-0.9,0.8-2,0.7-2.9c-0.2-1.2-1.3-1.9-2.5-2c-0.7,0-1.5,0.2-2.2,0.5
	c-2.5,1.1-5,2.1-7.4,3.3c-13.2,6.9-26.4,13.8-38.7,22.2c-4.8,3.3-4.9,3.2-4.3,8.9c0,0.1,0.1,0.2,0.4,0.7
	C308.6,238.7,310.4,237.6,312.2,236.5z M717.5,242.3c-0.4-0.4-0.7-0.7-1-0.9c-13.3-9.9-27.4-18.4-41.8-26.6c-2.4-1.4-5-2.6-7.6-3.7
	c-1.6-0.7-3.2,0-3.9,1.5c-0.6,1.3-0.2,2.8,1.3,3.7c0.8,0.5,1.7,0.9,2.6,1.3c11.2,5.9,22.1,12.2,32.6,19.4
	c5.6,3.8,11.1,7.7,17.1,11.9C717.1,246.4,717.3,244.3,717.5,242.3z M358.8,245.1c12.4-6.5,25.2-12.2,38.4-16.8
	c3.6-1.3,7.3-2.5,10.9-3.8c0.8-0.3,1.7-0.6,2.4-1c1.2-0.7,1.6-2.3,1.1-3.6c-0.5-1.4-1.6-1.9-3-1.8c-0.7,0.1-1.3,0.3-1.9,0.5
	c-13.7,4.3-27.1,9.7-40.1,15.7c-4.4,2.1-8.7,4.4-13,6.5c1,1.9,1.9,3.5,2.8,5.3C357.2,245.9,358,245.5,358.8,245.1z M341.2,273.3
	c3.8-2.4,7.4-4.9,11.3-7.1c10.5-5.8,20.9-11.6,32.1-16.1c4-1.6,8-3.4,12-5.1c1.6-0.7,2.1-2,1.7-3.5c-0.5-1.5-2-2.4-3.7-2
	c-0.9,0.2-1.8,0.6-2.7,1c-14.3,5.9-28.2,12.6-41.7,20.2c-0.8,0.5-1.7,1-2.3,1.7c-2.7,3.7-5.4,7.5-8.5,11.9
	C340.4,273.7,340.9,273.5,341.2,273.3z M277,308.2c-8.8,1.6-16.7,5.3-23.3,11.5c-1.4,1.3-2,2.7-1.1,4.6c5.6-1.1,11.1-2.5,16.6-3
	c5.7-0.5,10.3-2.7,14.4-6.5c2.4-2.3,5.3-4.2,7.4-7.5C285.9,306.8,281.4,307.4,277,308.2z M300.3,296c0.9-0.1,1.9-0.4,2.6-0.9
	c1.9-1.4,3.7-3.1,5.6-4.6c1.8-1.5,3.6-2.9,5.4-4.4c0.4-0.3,0.8-0.7,1.4-1.2c-0.5-0.2-0.7-0.4-1-0.4c-7-1.1-13.9-0.4-20.6,1.4
	c-5.5,1.5-10.8,3.5-15.4,7.1c-1.4,1.1-2.1,2.4-1.6,4.2C284.7,296.8,292.5,296.4,300.3,296z M650.8,237.7
	c-10.8-5.8-22.3-10.1-33.7-14.6c-0.4-0.1-0.7-0.3-1.1-0.3c-1.5-0.3-2.8,0.2-3.4,1.5c-0.6,1.3-0.2,3,1.1,3.8c0.8,0.5,1.7,0.8,2.6,1.2
	c8.4,3.5,16.7,7,25.1,10.5c0.7,0.3,1.5,0.5,2.2,0.4c2.8-0.4,5.6-0.9,8.8-1.5C651.7,238.3,651.3,238,650.8,237.7z M214.1,380.3
	c-1,1.6-1.2,3,0,4.5c7.3-3.1,14.5-6.3,21.8-9.4c-0.8-3.6-1.6-7.2-2.4-11C225.5,367.7,218.3,373.7,214.1,380.3z M767.5,346.7
	c-2.2-0.7-4.4-1.5-6.6-2.3c-1.9,3.8-3.7,7.2-5.6,10.9c4.6,1.4,9.1,2.7,13.9,4.1C768.7,355,768.1,351,767.5,346.7z M366.2,270.1
	c2.8,0.3,5.5,0.6,8.3,0.9c0.7,0.1,1.6,0.1,2.3-0.2c2.9-1.3,5.8-2.6,8.6-4c1.6-0.8,2.1-2.1,1.6-3.6c-0.6-1.8-2.3-2.7-4.2-1.8
	c-5.7,2.6-11.2,5.4-16.9,8.2C366,269.7,366.1,269.9,366.2,270.1z M770.9,364.4c-5.4-2.9-11.1-5.1-16.9-7.6c-1.3,2.8-3.5,4.8-3.8,7.5
	c7.1,0.5,14.1,0.9,21.4,1.4C771.3,365.2,771.2,364.6,770.9,364.4z M231.5,349.5c-1.1,1.3-0.7,2.6,0,3.9c2.7-0.3,4.3-1.5,5.4-3.9
	c0.8-1.9,2.3-3.6,3.6-5.2c1.7-2,3.6-3.9,5.7-6.2C240.4,341.2,235.4,344.6,231.5,349.5z M224.6,385.9c4.5-1.2,9.1-2.4,13.9-3.7
	c-0.5-1.3-1-2.4-1.6-3.8c-4.4,2.5-8.5,4.9-12.5,7.2C224.5,385.7,224.6,385.8,224.6,385.9z M286.7,301.8c2,0.1,4,0.2,6,0.5
	c2.2,0.3,3.5-0.3,4.3-2.7c-3.6,0.6-6.9,1.1-10.3,1.7C286.7,301.4,286.7,301.6,286.7,301.8z M268.4,325.5c-2.4,0.8-4.3,1.4-6.2,1.9
	C264.4,327.7,266.4,327.6,268.4,325.5z M625.5,246.4c0.6-0.2,1.2-0.4,1.7-0.6c0.6-0.3,1.1-0.6,2.3-1.3
	C626.4,244.4,626.4,244.4,625.5,246.4z M619.5,470.7c5.9,4.7,10.9,10.2,14.3,16.9c2.2,4.4,3.9,9,5.9,13.5c0.7,1.6,1.3,3.2,1.9,4.7
	c-2.3-15.8-10-28.1-23.7-36.6C618.4,469.7,619,470.2,619.5,470.7z M552.3,608.1c-0.6,2-1.2,4-1.7,6.1c-2,8.2-0.1,15.9,3.6,23.2
	c0.6,1.1,1.3,2.2,2.9,1.8c1.4-0.3,2.2-1.7,2-3.4c-0.1-1.1-0.6-2.2-0.9-3.3c-1.3-4.6-2.8-9.2-3.9-13.9c-0.8-3.3-1-6.8-1.5-10.2
	C552.6,608.2,552.4,608.1,552.3,608.1z M513.5,584.3c-0.3-0.5-1.1-1-1.7-1.1c-0.4,0-1.3,0.9-1.3,1.1c0.5,1.4-0.5,2.3-1,3.5
	c-0.2,0.4-0.1,1.3,0.2,1.5c0.4,0.4,1.3,0.7,1.8,0.5c1.2-0.6,2.3-1.5,3.3-2.2C514.3,586.4,514.1,585.3,513.5,584.3z M523.4,580.5
	c-0.4-0.1-1.3,0.7-1.5,1.3c-0.3,0.7,0.9,1.9,1.8,1.7c0.6-0.1,1.2-0.7,2.3-1.4C524.9,581.3,524.2,580.6,523.4,580.5z M519.1,590.9
	c-0.5-0.1-1.3,0.7-1.5,1.3c-0.3,0.7,0.8,1.8,1.9,1.6c0.6-0.1,1.2-0.6,2.4-1.3C520.6,591.7,519.9,591,519.1,590.9z M568.5,600.7
	c0.5,0,1.4-0.9,1.4-1.4c0-1.1-0.9-1.7-2-1.5c-0.6,0.1-1.1,0.7-2.2,1.5C567,600,567.7,600.7,568.5,600.7z M732,326.8
	c2.2,5,2.8,10.2,2.1,15.6c-0.6,4.7-0.4,9.4,0.3,14.1c0.1,0.6,0.4,1.1,0.7,2c2.1-2.6,3.1-5.3,3.2-8.2c0.6-12-1.4-23.4-7.3-34
	c-2-3.6-4.4-6.9-7.6-9.6C726.3,313.4,729,320.1,732,326.8z M735.9,305.4c1,2.9,2,5.8,3,8.8c1,2.7,0.7,5.8,2.1,8.6
	c2.2-2.7,2.8-4.9,2.3-8.1c-0.5-2.8-1.1-5.5-1.5-8.3c-0.7-5.1-3.9-7.8-9.1-9.9C734,299.8,734.9,302.6,735.9,305.4z"/>
</svg>
